<?xml version="1.0" encoding="UTF-8"?>
<svg version="1.1" xmlns="http://www.w3.org/2000/svg" width="3575" height="726">
<path d="M0 0 C1179.75 0 2359.5 0 3575 0 C3575 239.58 3575 479.16 3575 726 C2395.25 726 1215.5 726 0 726 C0 486.42 0 246.84 0 0 Z " fill="#FEFEFE" transform="translate(0,0)"/>
<path d="M0 0 C6.55682413 0.73783146 13.1227187 0.62821368 19.71192932 0.61012268 C21.16151426 0.60984015 22.61109935 0.60999984 24.0606842 0.61056519 C27.97119628 0.61085057 31.88167731 0.60499584 35.79218221 0.59799123 C39.8881052 0.59171445 43.984029 0.59115048 48.07995605 0.58996582 C55.8251352 0.58686521 63.57030012 0.57866903 71.31547302 0.56861633 C81.78933053 0.55531883 92.26319195 0.54994502 102.73705578 0.54411411 C119.22340122 0.53472822 135.70971666 0.51480083 152.19606018 0.49659729 C152.19606018 22.93659729 152.19606018 45.37659729 152.19606018 68.49659729 C145.59606018 68.49659729 138.99606018 68.49659729 132.19606018 68.49659729 C132.19606018 71.79659729 132.19606018 75.09659729 132.19606018 78.49659729 C130.19606018 82.12159729 130.19606018 82.12159729 128.19606018 84.49659729 C130.50606018 85.15659729 132.81606018 85.81659729 135.19606018 86.49659729 C135.22533935 90.49658166 135.24295237 94.49653805 135.25856018 98.49659729 C135.26693909 99.62194885 135.27531799 100.74730042 135.28395081 101.90675354 C135.28878479 103.5599762 135.28878479 103.5599762 135.29371643 105.24659729 C135.30157166 106.75480042 135.30157166 106.75480042 135.30958557 108.29347229 C135.19606018 111.49659729 135.19606018 111.49659729 134.72387695 115.14434814 C134.1611331 119.53545598 133.86199978 123.91565771 133.63746643 128.33570862 C133.59521439 129.15947148 133.55296234 129.98323435 133.50942993 130.83195972 C133.13330191 138.77235192 133.07891886 146.69910426 133.12089539 154.64690208 C133.13402927 157.16059582 133.14026493 159.67423492 133.14503479 162.18795776 C133.15628164 167.52002936 133.17552445 172.85205443 133.19606018 178.18409729 C133.21990218 184.38806686 133.24020071 190.59200964 133.2519989 196.79601479 C133.2583489 199.23951559 133.27084467 201.68293004 133.28370667 204.12640381 C133.35444735 225.57125853 130.86417056 245.80266765 125.19606018 266.49659729 C124.91963684 267.51479553 124.6432135 268.53299377 124.3584137 269.58204651 C121.94180803 278.28085076 119.08843392 286.76224613 116.00856018 295.24659729 C115.55309425 296.51468723 115.0980148 297.78291606 114.64332581 299.05128479 C111.35882562 308.1710664 111.35882562 308.1710664 110.19606018 310.49659729 C107.72115535 311.34539137 105.27289206 312.09812483 102.75856018 312.80909729 C96.27724491 314.73374632 89.92207306 316.79611277 84.19606018 320.49659729 C82.99335054 322.90201658 82.99289355 324.6002632 82.87965393 327.28565979 C82.81681213 328.69718323 82.81681213 328.69718323 82.75270081 330.13722229 C82.7133844 331.12206604 82.67406799 332.10690979 82.63356018 333.12159729 C82.59037659 334.11417542 82.54719299 335.10675354 82.50270081 336.12940979 C82.39644949 338.58499567 82.29441055 341.04068432 82.19606018 343.49659729 C79.11518613 344.75271626 76.0309117 346.00028192 72.94606018 347.24659729 C72.09270081 347.59464417 71.23934143 347.94269104 70.36012268 348.30128479 C59.74458538 352.57918788 49.26461813 355.94029951 38.00856018 358.05909729 C36.91559631 358.26961731 35.82263245 358.48013733 34.69654846 358.69703674 C32.51859138 359.11432088 30.33989634 359.52777518 28.16041565 359.93702698 C25.63893417 360.41299762 23.1222407 360.90688634 20.60621643 361.41065979 C12.54905363 362.98208886 4.49742604 363.95324528 -3.67893982 364.68409729 C-5.08780457 364.81014343 -5.08780457 364.81014343 -6.52513123 364.93873596 C-11.25700871 365.32437355 -15.99173024 365.6000613 -20.73753357 365.73487854 C-21.60950378 365.76235168 -22.481474 365.78982483 -23.37986755 365.81813049 C-27.57348396 365.26188185 -30.10894664 362.58710142 -32.80393982 359.49659729 C-32.80393982 361.47659729 -32.80393982 363.45659729 -32.80393982 365.49659729 C-40.41463493 366.52469709 -47.89208908 366.64154109 -55.56565857 366.62940979 C-56.90813728 366.63042666 -58.25061578 366.63176682 -59.59309387 366.63340759 C-63.15880097 366.63608701 -66.72446401 366.63167899 -70.29016495 366.62516785 C-72.49388509 366.62159332 -74.69759873 366.61997832 -76.90132141 366.61891174 C-99.55257426 366.60527137 -122.16274478 366.25446156 -144.80393982 365.49659729 C-144.80393982 343.38659729 -144.80393982 321.27659729 -144.80393982 298.49659729 C-138.84331482 298.80597229 -132.88268982 299.11534729 -126.74143982 299.43409729 C-124.87350769 299.52940735 -123.00557556 299.62471741 -121.08103943 299.72291565 C-119.58110765 299.80217552 -118.08118818 299.8816687 -116.58128357 299.96144104 C-115.43665649 300.01854248 -115.43665649 300.01854248 -114.26890564 300.07679749 C-110.99590322 300.25338885 -107.81820339 300.49443997 -104.57395935 300.98512268 C-98.96983736 301.74542805 -93.35268357 301.94796424 -87.70628357 302.21534729 C-86.43982498 302.2781488 -85.17336639 302.34095032 -83.86853027 302.40565491 C-80.50884542 302.57191801 -77.14905617 302.73556213 -73.78916931 302.8976593 C-69.08908172 303.12474848 -64.38917013 303.3553678 -59.68933105 303.58753967 C-57.19497881 303.71057969 -54.70054726 303.83202707 -52.20602417 303.95155334 C-44.06244017 304.35085595 -35.93423562 304.88435659 -27.80393982 305.49659729 C-27.80393982 304.50659729 -27.80393982 303.51659729 -27.80393982 302.49659729 C-18.45170158 300.52444095 -9.36665273 299.28465596 0.19606018 298.99659729 C15.76225626 298.49820889 31.46730181 297.10810872 44.19606018 287.49659729 C44.85606018 287.49659729 45.51606018 287.49659729 46.19606018 287.49659729 C46.40231018 286.67159729 46.60856018 285.84659729 46.82106018 284.99659729 C48.06021974 281.84237295 49.24673959 279.918772 51.28199768 277.27784729 C51.82646545 276.56692932 52.37093323 275.85601135 52.93190002 275.12355042 C53.34907288 274.58665588 53.76624573 274.04976135 54.19606018 273.49659729 C52.97660706 273.56878479 51.75715393 273.64097229 50.50074768 273.71534729 C31.40403773 274.73848302 12.31322564 274.59372977 -6.80393982 274.49659729 C-6.78073669 273.65355042 -6.75753357 272.81050354 -6.73362732 271.94190979 C-6.71558044 270.84620667 -6.69753357 269.75050354 -6.67893982 268.62159729 C-6.65573669 267.53105042 -6.63253357 266.44050354 -6.60862732 265.31690979 C-6.50333448 262.35949219 -6.50333448 262.35949219 -8.80393982 260.49659729 C-11.20885404 260.21569442 -11.20885404 260.21569442 -13.86643982 260.30909729 C-14.76491638 260.3155426 -15.66339294 260.32198792 -16.58909607 260.32862854 C-18.77719581 260.25264986 -18.77719581 260.25264986 -19.80393982 261.49659729 C-19.96887548 266.36219939 -19.66961049 270.6941862 -18.80393982 275.49659729 C-30.5181026 275.60363025 -42.13017466 275.59862122 -53.80393982 274.49659729 C-54.98858826 274.38573792 -56.17323669 274.27487854 -57.39378357 274.16065979 C-83.5237875 271.20465081 -109.09872382 261.21685564 -128.80393982 243.49659729 C-129.50776794 242.8739801 -130.21159607 242.25136292 -130.93675232 241.60987854 C-148.90354387 224.77028114 -160.53564997 193.74705796 -161.99143982 169.35499573 C-162.07215443 165.9619551 -162.08088096 162.57797224 -162.05393982 159.18409729 C-162.04862244 157.96585266 -162.04330505 156.74760803 -162.03782654 155.4924469 C-161.92351838 144.41540781 -161.11656405 133.49071858 -159.80393982 122.49659729 C-159.60477966 120.67321838 -159.60477966 120.67321838 -159.40159607 118.81300354 C-157.59260961 104.73736601 -152.09919366 81.79185113 -141.80393982 71.49659729 C-137.13548754 71.35233115 -132.47528029 71.45451314 -127.80393982 71.49659729 C-130.77393982 67.86659729 -133.74393982 64.23659729 -136.80393982 60.49659729 C-113.83208175 26.71445308 -72.68276284 9.00205722 -33.80393982 1.49659729 C-22.65913866 -0.45289247 -11.25932474 -1.49002741 0 0 Z " fill="#BC6144" transform="translate(1982.803939819336,245.50340270996094)"/>
<path d="M0 0 C7.54620997 0.88419115 15.17683046 0.89274192 22.765625 1.0859375 C30.9021875 1.3025 30.9021875 1.3025 39.203125 1.5234375 C39.203125 21.6534375 39.203125 41.7834375 39.203125 62.5234375 C36.563125 62.5234375 33.923125 62.5234375 31.203125 62.5234375 C30.543125 65.1634375 29.883125 67.8034375 29.203125 70.5234375 C34.153125 69.5334375 34.153125 69.5334375 39.203125 68.5234375 C39.2024704 69.53302521 39.2018158 70.54261292 39.20114136 71.58279419 C39.1986857 75.77973286 39.19738939 79.97667146 39.19629288 84.17361069 C39.19563232 86.22536096 39.19471925 88.27711117 39.19356918 90.32886124 C39.18602703 104.63714261 39.20740546 118.94492478 39.26100016 133.25308752 C39.32494895 150.32983966 39.34858992 167.40617428 39.3300972 184.48304367 C39.32114927 193.95902577 39.33191835 203.43430105 39.38476562 212.91015625 C39.43161223 221.32177246 39.44335082 229.73258611 39.4130429 238.14429104 C39.39834104 242.55542624 39.40051631 246.9649793 39.44562149 251.37594223 C39.48720958 255.48960522 39.48168788 259.60056222 39.44060326 263.71420479 C39.43377631 265.21297078 39.44378071 266.71193057 39.47255516 268.21043587 C39.6771218 279.61186481 39.6771218 279.61186481 35.85979843 284.56241226 C33.06393433 287.24343872 33.06393433 287.24343872 30.24983025 289.49093819 C29.57441751 290.16166296 28.89900478 290.83238773 28.203125 291.5234375 C28.11972441 293.70951222 28.11972441 293.70951222 29.203125 295.5234375 C30.6620494 296.69550802 32.17122852 297.8060431 33.70849609 298.87329102 C36.65415172 301.40957851 38.02462789 302.83681933 39.01055908 306.62936401 C39.25944195 310.41326146 39.24358687 314.14089404 39.1171875 317.92578125 C39.10289162 319.33090397 39.09250006 320.73607121 39.08578491 322.14125061 C39.05722145 325.83341753 38.97394274 329.52239312 38.87939453 333.21337891 C38.79499342 336.91336297 38.76583186 340.61373664 38.73046875 344.31445312 C38.57719013 358.06519049 38.25884686 371.80822215 37.203125 385.5234375 C14.94327639 390.54985493 -8.08999224 390.73125887 -30.796875 390.5234375 C-30.796875 388.5434375 -30.796875 386.5634375 -30.796875 384.5234375 C-31.46847656 384.54664063 -32.14007812 384.56984375 -32.83203125 384.59375 C-41.19569527 384.74483554 -49.36980565 384.09965607 -57.68920898 383.30297852 C-65.68801482 382.55819258 -73.67031303 382.1703055 -81.70288086 382.04125977 C-86.62459047 381.89670735 -89.69551497 381.51567488 -93.796875 378.5234375 C-94.456875 378.5234375 -95.116875 378.5234375 -95.796875 378.5234375 C-97.116875 380.8334375 -98.436875 383.1434375 -99.796875 385.5234375 C-106.7977898 385.59229896 -113.79586558 385.57662267 -120.796875 385.5234375 C-121.95268066 385.51763672 -123.10848633 385.51183594 -124.29931641 385.50585938 C-147.46186348 385.31792796 -167.32382845 382.69403754 -187.796875 371.5234375 C-188.52422852 371.12962891 -189.25158203 370.73582031 -190.00097656 370.33007812 C-215.42166878 356.39577276 -230.16473131 338.18528874 -238.734375 310.7109375 C-243.69033192 292.53271712 -245.18111391 274.28194853 -245.234375 255.5234375 C-245.24349915 254.31580246 -245.24349915 254.31580246 -245.25280762 253.08377075 C-245.33124633 237.23733104 -243.51121469 221.69503978 -238.796875 206.5234375 C-238.30960938 204.78320312 -238.30960938 204.78320312 -237.8125 203.0078125 C-231.37384077 180.49395785 -220.05952257 158.74682555 -206.796875 139.5234375 C-200.71311557 140.64638494 -195.48109921 143.08734141 -189.796875 145.5234375 C-192.436875 140.2434375 -195.076875 134.9634375 -197.796875 129.5234375 C-183.97958393 117.45763403 -169.12552023 109.74066368 -152.00048828 103.36230469 C-150.13230478 102.65112825 -148.2875593 101.87885226 -146.44921875 101.09375 C-129.46611256 93.88879586 -110.61753081 91.32403582 -92.296875 91.3359375 C-91.10980957 91.33601807 -89.92274414 91.33609863 -88.69970703 91.33618164 C-79.97581425 91.39122015 -71.37428115 91.93259955 -62.69165039 92.73706055 C-48.43089244 94.00621273 -34.10446677 94.19702856 -19.796875 94.5234375 C-19.98950928 93.57041748 -20.18214355 92.61739746 -20.38061523 91.63549805 C-24.1045613 73.12892951 -27.02607817 54.8926007 -28.046875 36.0234375 C-28.10840256 34.90517075 -28.10840256 34.90517075 -28.1711731 33.76431274 C-28.7448163 23.01209626 -28.88834287 12.28954446 -28.796875 1.5234375 C-19.11700271 -0.36481091 -9.83142825 -1.23398585 0 0 Z " fill="#BC6144" transform="translate(1119.796875,152.4765625)"/>
<path d="M0 0 C1.65249756 -0.0148645 1.65249756 -0.0148645 3.33837891 -0.0300293 C23.09300964 0.07135275 39.81346661 2.46958811 58.53125 8.61328125 C59.2448468 8.84544342 59.9584436 9.07760559 60.69366455 9.31680298 C76.69845001 14.57876085 88.52474059 22.90625459 100.96875 34.11328125 C101.75644775 34.81553833 101.75644775 34.81553833 102.56005859 35.53198242 C105.00671201 37.77252087 106.33844086 39.09735382 107.40625 42.30078125 C105.92125 43.19796875 105.92125 43.19796875 104.40625 44.11328125 C103.41625 44.83515625 102.42625 45.55703125 101.40625 46.30078125 C101.40625 47.29078125 101.40625 48.28078125 101.40625 49.30078125 C104.83963516 48.09445673 106.90989585 46.91600941 109.40625 44.30078125 C110.06625 44.30078125 110.72625 44.30078125 111.40625 44.30078125 C123.36709062 59.7742851 130.37711786 76.55269796 135.40625 95.30078125 C135.8016711 96.71105315 136.19748126 98.12121604 136.59375 99.53125 C144.00578836 126.59842579 142.47523471 154.52663752 137.953125 181.96484375 C137.44868902 185.04190325 136.98514943 188.12219624 136.53125 191.20703125 C135.01976116 200.95707788 132.72104378 210.20881203 129.53125 219.55078125 C129.21575195 220.47938965 128.90025391 221.40799805 128.57519531 222.36474609 C125.12148179 231.9481949 121.25452929 239.66426594 112.5390625 245.21875 C108.52413018 247.88702796 104.80564615 250.86861464 101.03125 253.86328125 C82.65890968 268.28528789 63.67181715 282.63316872 41.40625 290.30078125 C40.42398438 290.64109375 39.44171875 290.98140625 38.4296875 291.33203125 C32.37550635 293.13327523 26.55650341 293.56792578 20.28125 293.61328125 C19.55317139 293.6189209 18.82509277 293.62456055 18.07495117 293.63037109 C13.23733963 293.56633989 8.7933331 292.82075419 4.07177734 291.80639648 C-9.46614095 289.23843268 -23.8487433 289.11857961 -37.59375 288.92578125 C-38.55297363 288.89983887 -39.51219727 288.87389648 -40.50048828 288.84716797 C-46.49691876 288.83137403 -50.86453404 289.96419403 -56.33398438 292.38378906 C-64.68099863 295.77093098 -74.51101927 293.42878744 -82.5546875 290.2421875 C-96.04410352 284.03788753 -109.18091511 275.79089743 -120.59375 266.30078125 C-121.45871094 265.58664062 -122.32367187 264.8725 -123.21484375 264.13671875 C-133.14088185 255.58552002 -144.52252269 244.23588942 -145.9921875 230.60546875 C-146.03717974 226.295212 -145.98245146 222.14099857 -145.08935547 217.9128418 C-140.68226086 194.68549933 -148.23944411 169.27559365 -159.44140625 149.0234375 C-168.89519087 131.53265234 -166.73033153 116.17691381 -161.65625 97.42578125 C-160.98416841 95.37898733 -160.29734957 93.33695577 -159.59375 91.30078125 C-158.94509859 89.09327402 -158.2992886 86.88492999 -157.65625 84.67578125 C-152.70056416 68.85202763 -145.39846845 54.89550296 -134.59375 42.30078125 C-133.82289063 41.33011719 -133.05203125 40.35945313 -132.2578125 39.359375 C-118.07050654 22.36475352 -97.47244146 15.56160689 -76.1975708 13.5942688 C-71.96242517 13.19961909 -67.73139338 12.76479712 -63.5 12.33203125 C-62.65515045 12.24607193 -61.8103009 12.16011261 -60.93984985 12.07154846 C-33.44015079 10.17194605 -33.44015079 10.17194605 -7.76171875 1.24780273 C-5.05492273 0.06540839 -2.95098611 0.0258816 0 0 Z " fill="#BC6144" transform="translate(651.59375,246.69921875)"/>
<path d="M0 0 C1.22962589 0.00085602 2.45925179 0.00171204 3.72613907 0.00259399 C18.10911005 0.01340139 32.49205638 0.03246032 46.875 0.0625 C46.78909198 0.88892344 46.78909198 0.88892344 46.70144844 1.73204231 C45.25788959 15.87250782 44.49395586 29.90943476 44.2421875 44.1171875 C44.20087751 46.12600067 44.15888134 48.13479983 44.11624146 50.14358521 C44.00755883 55.34802662 43.90799022 60.55260084 43.81054688 65.75726318 C43.70880431 71.10131183 43.59812829 76.44517539 43.48828125 81.7890625 C43.2752809 92.21338238 43.07194173 102.6378652 42.875 113.0625 C25.04167453 113.09299484 7.20834802 113.11353413 -10.625 113.125 C-12.59164801 113.12628403 -12.59164801 113.12628403 -14.59802628 113.12759399 C-46.8390985 113.14620365 -79.07579416 113.14113427 -111.3125 112.5625 C-111.97935822 112.55054218 -112.64621643 112.53858437 -113.33328247 112.52626419 C-120.93089603 112.38859707 -128.52813488 112.23667548 -136.125 112.0625 C-136.96264268 110.10600603 -137.79499059 108.14724444 -138.625 106.1875 C-139.0890625 105.09695313 -139.553125 104.00640625 -140.03125 102.8828125 C-141.125 100.0625 -141.125 100.0625 -141.125 98.0625 C-145.24291244 100.17997952 -149.15258416 102.19068279 -152.62004089 105.29942322 C-163.1950934 114.37907091 -174.46005469 113.21954202 -187.80078125 112.94140625 C-190.18114298 112.92459356 -192.56153613 112.91179498 -194.94194031 112.90281677 C-201.16844609 112.86866278 -207.39302378 112.78043796 -213.61877441 112.68048096 C-219.98712083 112.58795743 -226.35578273 112.54721177 -232.72460938 112.50195312 C-245.19238416 112.40579973 -257.65822915 112.24766416 -270.125 112.0625 C-270.125 120.9725 -270.125 129.8825 -270.125 139.0625 C-164.195 138.7325 -58.265 138.4025 50.875 138.0625 C51.205 153.2425 51.535 168.4225 51.875 184.0625 C17.85302258 183.44391859 -16.1256644 182.4247684 -50.125 181.0625 C-50.455 178.7525 -50.785 176.4425 -51.125 174.0625 C-55.79761564 172.50496145 -60.25478996 172.35059771 -65.125 173.0625 C-68.98211679 175.02298817 -72.09239583 177.60370463 -74.59476089 181.13888168 C-78.56887194 184.16020595 -82.50170308 183.6008249 -87.36273193 183.54351807 C-88.94206792 183.54864462 -88.94206792 183.54864462 -90.55330968 183.55387473 C-94.09278007 183.56048028 -97.63149754 183.53843251 -101.17089844 183.51660156 C-103.70347577 183.51547367 -106.23605441 183.51610581 -108.76863098 183.51837158 C-114.22694278 183.51928341 -119.68501073 183.50791455 -125.1432724 183.48542023 C-133.03495544 183.45291856 -140.92654599 183.44249511 -148.81828871 183.43746826 C-161.62191286 183.42871271 -174.4254351 183.40209013 -187.22900391 183.36425781 C-199.66682424 183.32754442 -212.1046169 183.29922939 -224.54248047 183.28222656 C-225.69239092 183.28065022 -225.69239092 183.28065022 -226.86553189 183.27904204 C-230.71135549 183.2738219 -234.55717929 183.26876707 -238.40300322 183.26379442 C-270.31040954 183.2223243 -302.21769063 183.15186885 -334.125 183.0625 C-334.13048377 179.13651737 -334.13441302 175.21053629 -334.1370163 171.28455067 C-334.13863303 169.30656417 -334.1414152 167.32857873 -334.14422607 165.35059357 C-334.15015819 154.64280201 -333.95086215 143.95205662 -333.625 133.25 C-333.57644652 131.55144301 -333.52827023 129.8528752 -333.48046875 128.15429688 C-333.36692587 124.12352464 -333.24589593 120.09308399 -333.125 116.0625 C-327.515 113.0925 -321.905 110.1225 -316.125 107.0625 C-321.735 106.7325 -327.345 106.4025 -333.125 106.0625 C-333.125 93.5225 -333.125 80.9825 -333.125 68.0625 C-318.10423171 67.88156582 -303.0835891 67.71158635 -288.0625 67.5625 C-286.86696377 67.55062275 -285.67142754 67.5387455 -284.43966293 67.52650833 C-226.77314939 66.96259487 -169.10625892 66.9779102 -111.4375 67 C-109.72752594 67.00063635 -109.72752594 67.00063635 -107.98300695 67.00128555 C-78.36366316 67.01249255 -48.74433112 67.03310708 -19.125 67.0625 C-19.125 59.4725 -19.125 51.8825 -19.125 44.0625 C-44.865 43.7325 -70.605 43.4025 -97.125 43.0625 C-95.805 40.4225 -94.485 37.7825 -93.125 35.0625 C-92.78487041 32.22559163 -92.78487041 32.22559163 -93.125 30.0625 C-96.23453379 28.5077331 -98.68766761 28.77605563 -102.125 29.0625 C-105.17135874 30.67189707 -107.36366576 32.04738768 -109.4375 34.8125 C-110.44935356 38.12402076 -110.69550983 41.62657865 -111.125 45.0625 C-184.715 45.0625 -258.305 45.0625 -334.125 45.0625 C-333.795 40.7725 -333.465 36.4825 -333.125 32.0625 C-332.795 21.8325 -332.465 11.6025 -332.125 1.0625 C-308.365 1.0625 -284.605 1.0625 -260.125 1.0625 C-260.125 4.3625 -260.125 7.6625 -260.125 11.0625 C-255.33536822 14.25558786 -250.72640243 13.37752999 -245.3125 12.3125 C-241.87810526 10.96567853 -240.75498752 10.32247503 -239.125 7.0625 C-238.76273084 5.06753831 -238.42630902 3.06757456 -238.125 1.0625 C-212.18754336 0.8889254 -186.25004221 0.72277341 -160.3125 0.5625 C-159.35119328 0.55655146 -158.38988657 0.55060292 -157.39944935 0.54447412 C-104.9327933 0.22024551 -52.46776653 -0.03680334 0 0 Z " fill="#010101" transform="translate(2666.125,383.9375)"/>
<path d="M0 0 C-0.0707373 0.56307861 -0.14147461 1.12615723 -0.21435547 1.70629883 C-1.05051703 9.04438802 -1.15292673 16.30736192 -1.125 23.6875 C-1.12306641 24.92685303 -1.12113281 26.16620605 -1.11914062 27.44311523 C-1.08403925 34.87339276 -0.89763183 42.22720847 -0.21875 49.62890625 C0.09213121 54.41980774 0.03869875 59.20081763 0 64 C-0.83692383 63.96970703 -1.67384766 63.93941406 -2.53613281 63.90820312 C-24.28561092 63.15522519 -46.02797281 62.88807818 -67.78947449 62.87661743 C-69.80655405 62.87500475 -71.82362215 62.87144731 -73.84069824 62.86743164 C-77.67116882 62.8615206 -81.5015597 62.86303801 -85.33203125 62.8671875 C-86.47756973 62.86520355 -87.62310822 62.8632196 -88.80335999 62.86117554 C-94.20610512 62.87675522 -99.44829617 63.08912349 -104.8065033 63.76864624 C-108.95119744 64.20579783 -113.10940399 64.17716159 -117.2734375 64.2109375 C-119.25391409 64.23903627 -121.23438271 64.26770088 -123.21484375 64.296875 C-126.27912908 64.33776459 -129.34327083 64.37472414 -132.40771484 64.40136719 C-150.2605394 64.56932563 -167.17819453 66.16648171 -184.375 71.1875 C-185.41519287 71.48503174 -186.45538574 71.78256348 -187.52709961 72.08911133 C-197.89906403 75.13217456 -208.05199327 78.7720422 -218 83 C-219.09997314 83.4340918 -219.09997314 83.4340918 -220.22216797 83.87695312 C-225.44521143 86.13621749 -227.74773594 88.87931764 -230 94.125 C-230.32411865 94.82657227 -230.6482373 95.52814453 -230.98217773 96.25097656 C-231.66470938 97.73864246 -232.33567166 99.23166488 -232.99560547 100.72949219 C-233.97879989 102.9520756 -235.00094934 105.15232422 -236.03515625 107.3515625 C-246.35431638 129.55857352 -254.21958479 152.21989707 -254.125 176.875 C-254.12886719 177.90625 -254.13273437 178.9375 -254.13671875 180 C-254.13542969 180.98742187 -254.13414062 181.97484375 -254.1328125 182.9921875 C-254.13112061 184.32805908 -254.13112061 184.32805908 -254.12939453 185.69091797 C-254.09240229 188.16055 -254.09240229 188.16055 -253 191 C-252.72003481 196.55813254 -252.78343454 202.11083541 -253.5625 207.625 C-254.30157167 210.86226088 -254.30157167 210.86226088 -253 213 C-252.96163817 215.51241885 -252.98181343 217.99750561 -253.04296875 220.5078125 C-253.06541356 222.0689969 -253.08686255 223.63019588 -253.10742188 225.19140625 C-253.14402511 227.63533906 -253.18634929 230.07850771 -253.24682617 232.52197266 C-253.58565924 246.90092346 -252.18607777 260.47181647 -245.25 273.375 C-244.90638428 274.03725586 -244.56276855 274.69951172 -244.20874023 275.38183594 C-241.62993986 280.1952834 -238.63334942 284.43466039 -235.0546875 288.5703125 C-232.74151141 291.30566521 -230.74289036 294.19186286 -228.6875 297.125 C-224.22691076 303.09544505 -219.3260048 307.11751637 -213 311 C-211.84951172 311.72123047 -211.84951172 311.72123047 -210.67578125 312.45703125 C-175.18229961 332.40328324 -117.27451757 326.33501746 -78 327 C-77.95101562 327.90363281 -77.90203125 328.80726563 -77.8515625 329.73828125 C-77.73941406 331.50751953 -77.73941406 331.50751953 -77.625 333.3125 C-77.52058594 335.07013672 -77.52058594 335.07013672 -77.4140625 336.86328125 C-77.21386253 340.15699887 -77.21386253 340.15699887 -75 343 C-72.62985808 343.66840854 -72.62985808 343.66840854 -70 343 C-66.22249478 339.63402787 -63.48487381 335.98801056 -60.75 331.75 C-57.05555556 326.05555556 -57.05555556 326.05555556 -56 325 C-53.26577088 324.80398554 -50.55079551 324.66827667 -47.8125 324.5703125 C-46.07460679 324.49833817 -44.33673312 324.42589076 -42.59887695 324.35302734 C-41.68385406 324.31602722 -40.76883118 324.2790271 -39.82608032 324.24090576 C-24.64497523 323.61828455 -9.67191662 322.682812 5.38671875 320.5859375 C8.95339022 320.09245378 12.39167683 319.86835305 16 320 C15.88930176 320.65967773 15.77860352 321.31935547 15.66455078 321.99902344 C13.20127444 337.0144998 11.61113591 351.82999687 10.8671875 367.015625 C10.78109878 368.67597425 10.69443148 370.3362936 10.60717773 371.99658203 C10.39814939 375.99741002 10.19682987 379.99855411 10 384 C-8.29766969 384.14015312 -26.59520011 384.24596245 -44.89329052 384.31087303 C-53.38941069 384.34181313 -61.88519739 384.38399613 -70.38110352 384.45263672 C-77.78604155 384.51243459 -85.19073808 384.55114805 -92.59591085 384.56453097 C-96.51715286 384.57235429 -100.437704 384.59074248 -104.35872459 384.63438034 C-108.0500262 384.6751285 -111.74035291 384.68766525 -115.43185806 384.67864609 C-117.43131702 384.68108205 -119.43066992 384.71335954 -121.42985535 384.746521 C-130.03479684 384.68704285 -130.03479684 384.68704285 -132.94088173 382.61845779 C-134.34443665 380.95742798 -134.34443665 380.95742798 -136 378 C-138.97098125 379.04858162 -141.04855423 380.04005724 -143.5 382.0625 C-155.69627956 390.43238238 -187.77902458 386.1315535 -202.25 383.5625 C-211.87493173 381.68335532 -221.14861981 378.53435811 -230.37792969 375.26196289 C-231.44043945 374.88547607 -232.50294922 374.50898926 -233.59765625 374.12109375 C-234.65355957 373.74581543 -235.70946289 373.37053711 -236.79736328 372.98388672 C-240.04930944 371.98485158 -243.20413662 371.45367713 -246.55859375 370.91015625 C-253.9497125 369.27272895 -258.33920454 364.92991053 -263.42254639 359.63397217 C-265.06061931 357.93720876 -266.73452841 356.28441399 -268.42236328 354.63720703 C-271.39576966 351.73123228 -274.34152344 348.79937028 -277.27612305 345.85424805 C-279.08852296 344.0363988 -280.90632844 342.22407431 -282.72460938 340.41210938 C-283.89094644 339.24511284 -285.05697399 338.07780685 -286.22265625 336.91015625 C-287.02885155 336.1069973 -287.02885155 336.1069973 -287.85133362 335.28761292 C-293.25305513 329.85194593 -295.28699997 326.53068691 -296.4375 319 C-298.52259755 307.0652444 -302.5411048 295.78575878 -306.49584961 284.37109375 C-313.25492762 264.80835596 -319.03628902 245.64479605 -319.125 224.8125 C-319.12967285 224.05203369 -319.1343457 223.29156738 -319.13916016 222.50805664 C-319.11320829 213.35603245 -319.11320829 213.35603245 -318 209 C-315.71484375 207.00390625 -315.71484375 207.00390625 -312.9375 205.5625 C-311.55884766 204.82193359 -311.55884766 204.82193359 -310.15234375 204.06640625 C-309.44207031 203.71449219 -308.73179687 203.36257813 -308 203 C-308.45441142 199.47410396 -310.12084453 197.48138409 -312.34082031 194.79125977 C-316.44570148 189.66484068 -318.68630387 185.84777743 -318.25 179.0625 C-317.97697722 177.1091826 -317.70035865 175.15569057 -317.36328125 173.21240234 C-316.96361897 170.77843758 -316.67917737 168.34587388 -316.40625 165.89453125 C-312.42412082 131.37448762 -301.58398602 97.42907471 -283 68 C-282.34128906 66.94425781 -281.68257812 65.88851562 -281.00390625 64.80078125 C-276.8708607 58.63987966 -272.32091966 54.81548718 -266.27734375 50.578125 C-262.36065149 47.66282607 -259.19677288 44.11482992 -255.9375 40.5 C-244.56675176 27.93462919 -230.88019607 15.96095545 -213.09570312 14.88476562 C-210.87649723 14.79238425 -208.65705135 14.70864204 -206.4375 14.625 C-197.54281018 14.2523995 -189.51096641 12.51675957 -181 10 C-180.25733887 9.78230957 -179.51467773 9.56461914 -178.74951172 9.34033203 C-174.24819259 8.01957859 -174.24819259 8.01957859 -169.75756836 6.66308594 C-161.21237738 4.06692131 -153.2480781 3.7875183 -144.375 3.75 C-143.1478125 3.729375 -141.920625 3.70875 -140.65625 3.6875 C-139.47804688 3.68234375 -138.29984375 3.6771875 -137.0859375 3.671875 C-135.4779126 3.65785645 -135.4779126 3.65785645 -133.83740234 3.64355469 C-130.6764289 4.04064824 -129.32320134 4.87781125 -127 7 C-126.67 5.68 -126.34 4.36 -126 3 C-125.2251828 2.99191315 -124.4503656 2.98382629 -123.65206909 2.97549438 C-113.72623198 2.87008614 -103.80057852 2.75238384 -93.875 2.625 C-93.08149643 2.61483479 -92.28799286 2.60466957 -91.47044373 2.59419632 C-66.36145118 2.26844662 -41.30557396 1.57027268 -16.22525024 0.28143311 C-10.81053796 0.01247636 -5.42225897 -0.08367684 0 0 Z " fill="#BC6144" transform="translate(409,154)"/>
<path d="M0 0 C1.68186401 -0.00290039 1.68186401 -0.00290039 3.39770508 -0.00585938 C5.27945435 0.0009082 5.27945435 0.0009082 7.19921875 0.0078125 C8.18297989 0.00914185 8.18297989 0.00914185 9.18661499 0.01049805 C20.29710127 0.02769566 31.39711951 0.27243705 42.50332642 0.56262207 C61.50735141 1.05741211 80.50119076 1.24447997 99.51171875 1.2578125 C100.75708405 1.26031006 102.00244934 1.26280762 103.28555298 1.26538086 C106.85315725 1.27128461 110.42067598 1.26978303 113.98828125 1.265625 C115.57156975 1.26860092 115.57156975 1.26860092 117.18684387 1.27163696 C121.77480951 1.25736043 126.26980521 1.14306209 130.83007812 0.62353516 C136.7891121 -0.03825077 142.703241 0.05551046 148.69140625 0.1484375 C149.89177521 0.16493347 151.09214417 0.18142944 152.32888794 0.19842529 C154.85521221 0.23573193 157.38149087 0.27625194 159.90771484 0.31982422 C163.74311303 0.38250842 167.57837732 0.42403336 171.4140625 0.46484375 C173.88153138 0.50390595 176.34898068 0.54422918 178.81640625 0.5859375 C179.94803192 0.59546448 181.07965759 0.60499146 182.24557495 0.61480713 C189.83473206 0.77539522 196.60306344 2.04193408 203.88671875 4.1328125 C205.31221945 4.49070264 206.73797062 4.84759784 208.1640625 5.203125 C217.8853186 8.00434074 217.8853186 8.00434074 220.94921875 11.45703125 C222.16641545 13.65974233 223.12967401 15.73637431 223.88671875 18.1328125 C226.36171875 16.1528125 226.36171875 16.1528125 228.88671875 14.1328125 C237.21775405 19.85629935 244.64528938 26.10466506 251.88671875 33.1328125 C252.63050781 33.83921875 253.37429688 34.545625 254.140625 35.2734375 C258.37768553 39.61829018 261.35215663 44.34742211 264.13671875 49.6953125 C264.61286621 50.58609497 264.61286621 50.58609497 265.09863281 51.49487305 C271.61530548 64.76976697 272.47987036 78.62370911 272.4609375 93.09765625 C272.47342464 94.86928155 272.48777021 96.64089461 272.50386047 98.41249084 C272.54149258 103.02681099 272.55700429 107.64091788 272.56665039 112.25537109 C272.58656437 119.66208713 272.643576 127.06864441 272.69541359 134.47519112 C272.71060456 137.04141325 272.71791789 139.60755398 272.72355652 142.17381287 C272.75059509 149.55128944 272.82579264 156.81544145 273.88671875 164.1328125 C271.90671875 165.4528125 269.92671875 166.7728125 267.88671875 168.1328125 C269.20671875 168.7928125 270.52671875 169.4528125 271.88671875 170.1328125 C271.88449814 170.76412079 271.88227753 171.39542908 271.87998962 172.04586792 C271.85743783 178.7649477 271.84261042 185.48401635 271.83178711 192.203125 C271.82683412 194.69303831 271.82006992 197.18294884 271.8112793 199.67285156 C271.73656714 221.41848277 271.9930124 243.14961096 273.94921875 264.8203125 C274.71712562 273.96739772 275.10005961 282.95748204 274.88671875 292.1328125 C270.886479 291.82333449 266.88657677 291.50968261 262.88671875 291.1953125 C261.76136719 291.10830078 260.63601563 291.02128906 259.4765625 290.93164062 C258.37441406 290.84462891 257.27226563 290.75761719 256.13671875 290.66796875 C254.62851563 290.55014038 254.62851563 290.55014038 253.08984375 290.42993164 C250.75106863 290.21298886 248.4182576 289.92875459 246.09179688 289.60546875 C241.50631742 289.01998327 236.97246387 289.00657193 232.35546875 289.03515625 C231.47894653 289.0365712 230.60242432 289.03798615 229.69934082 289.03944397 C226.92843054 289.04499482 224.15760418 289.05753789 221.38671875 289.0703125 C219.49609493 289.07533386 217.60546982 289.07989565 215.71484375 289.08398438 C211.10543692 289.0949481 206.49609202 289.11217825 201.88671875 289.1328125 C201.98120886 285.02479739 202.08749686 280.91726278 202.20410156 276.80981445 C202.24207172 275.41634177 202.27697645 274.02278169 202.30859375 272.62915039 C202.35494899 270.61052469 202.4128136 268.59248462 202.47265625 266.57421875 C202.50407715 265.36451416 202.53549805 264.15480957 202.56787109 262.90844727 C202.80807719 260.06404653 203.16882691 257.94753496 203.89620972 255.25732422 C205.31510167 248.98739356 205.12137129 242.76327954 205.05371094 236.36499023 C205.04654423 234.99375827 205.04025702 233.62252147 205.03477478 232.25128174 C205.01723958 228.54566779 204.98678946 224.84026572 204.95344067 221.13476443 C204.91998109 217.22628369 204.89687101 213.31773876 204.87213135 209.40919495 C204.82882679 202.83140133 204.77701045 196.25371544 204.72021484 189.67602539 C204.65521929 182.13567005 204.60397773 174.59531848 204.56027293 167.05481189 C204.51752305 159.7436188 204.46420752 152.43253596 204.40653229 145.12144661 C204.38242749 142.04039738 204.36188942 138.95935773 204.34450531 135.87826347 C204.26144533 121.77708086 204.12960233 107.68418039 203.10644531 93.61352539 C203.04658321 92.67183974 202.98672112 91.73015409 202.92504501 90.75993252 C202.37132628 84.25552683 201.17780935 77.01769023 196.04089737 72.51481724 C181.65532735 62.69620421 162.51653875 63.65275858 145.88671875 63.1328125 C146.21285156 62.07707031 146.53898437 61.02132812 146.875 59.93359375 C147.70381065 56.81995373 148.13532567 54.49231731 148.07421875 51.3203125 C148.06777344 50.57136719 148.06132813 49.82242188 148.0546875 49.05078125 C147.99770952 47.04856372 147.99770952 47.04856372 146.88671875 45.1328125 C145.47102811 45.05113804 144.0539507 44.99331552 142.63671875 44.9453125 C141.8478125 44.91050781 141.05890625 44.87570312 140.24609375 44.83984375 C137.17156625 45.22161455 135.95213454 45.80452561 133.88671875 48.1328125 C133.40154472 51.56045305 133.40154472 51.56045305 133.63671875 55.3203125 C133.6728125 56.59261719 133.70890625 57.86492187 133.74609375 59.17578125 C133.7925 60.15160156 133.83890625 61.12742187 133.88671875 62.1328125 C128.89009372 62.82735012 123.89056917 63.49290441 118.88671875 64.1328125 C117.98179688 64.25011719 117.076875 64.36742187 116.14453125 64.48828125 C106.7683802 65.52175477 97.30509718 65.21583445 87.88671875 65.1328125 C88.38171875 72.0628125 88.38171875 72.0628125 88.88671875 79.1328125 C86.57671875 78.4728125 84.26671875 77.8128125 81.88671875 77.1328125 C82.21027344 77.75027344 82.53382812 78.36773437 82.8671875 79.00390625 C83.26550781 79.85082031 83.66382813 80.69773437 84.07421875 81.5703125 C84.48027344 82.39402344 84.88632813 83.21773438 85.3046875 84.06640625 C85.93504596 87.38742232 85.65129296 88.14877194 84.44360352 91.16113281 C82.60282384 96.42534386 82.48586238 101.21133733 82.55859375 106.74609375 C82.56010437 107.74540421 82.56161499 108.74471466 82.56317139 109.77430725 C82.5724762 112.99825423 82.60396507 116.22152582 82.63671875 119.4453125 C82.6486287 121.67593967 82.6596924 123.90657152 82.66992188 126.13720703 C82.73784901 137.6011697 82.92501595 149.0525001 83.38671875 160.5078125 C83.44581421 162.09940186 83.44581421 162.09940186 83.50610352 163.72314453 C83.67059462 168.06746611 83.84493321 172.40817103 84.09521484 176.74853516 C84.30147581 180.43863517 84.44229333 184.12690056 84.57421875 187.8203125 C84.69410156 189.47909424 84.69410156 189.47909424 84.81640625 191.17138672 C84.94158273 195.99440663 84.86731941 198.92742075 81.75244141 202.75634766 C79.2208137 205.03783473 76.60584847 207.08170337 73.88671875 209.1328125 C72.53123019 210.44361619 71.18988928 211.76998378 69.88671875 213.1328125 C70.57378906 213.74769531 71.26085938 214.36257813 71.96875 214.99609375 C72.86980469 215.80433594 73.77085938 216.61257813 74.69921875 217.4453125 C75.59253906 218.24582031 76.48585938 219.04632813 77.40625 219.87109375 C78.63408203 220.99064453 78.63408203 220.99064453 79.88671875 222.1328125 C80.42585403 222.54058426 80.96498932 222.94835602 81.52046204 223.3684845 C83.59483443 226.0472441 83.24614562 228.27463796 83.22729492 231.6237793 C83.22795204 232.60467026 83.22795204 232.60467026 83.22862244 233.6053772 C83.22653414 235.76456673 83.20320263 237.92297755 83.1796875 240.08203125 C83.17409166 241.57989579 83.1698215 243.07776582 83.16682434 244.57563782 C83.15537455 248.51639996 83.12590653 252.45682995 83.0927124 256.39746094 C83.06201423 260.41922512 83.04831957 264.44104303 83.03320312 268.46289062 C83.00103668 276.35301694 82.94983903 284.24287339 82.88671875 292.1328125 C78.95764294 292.69376144 75.02785733 293.24943293 71.09739685 293.80059814 C69.11675863 294.07939958 67.13667928 294.3621622 65.15661621 294.64501953 C47.07982529 297.17308205 29.11103489 297.30431685 10.88671875 297.1328125 C10.39716915 279.12826592 9.85686246 258.99081739 16.88671875 242.1328125 C15.51778636 242.08010787 15.51778636 242.08010787 12.88671875 243.1328125 C12.84018653 232.64860803 12.80474406 222.16442852 12.78309441 211.68014145 C12.77269878 206.81081215 12.7586175 201.94155399 12.73583984 197.07226562 C12.7139599 192.36492472 12.70211846 187.65765185 12.69696426 182.95026398 C12.69329552 181.16271139 12.68613214 179.37516213 12.67525864 177.58763885 C12.62404108 168.8113489 12.73610029 160.46196221 14.42382812 151.81442261 C15.20766715 147.2734997 15.22367625 142.74265195 15.265625 138.14453125 C15.28261948 137.15709427 15.29961395 136.16965729 15.31712341 135.15229797 C15.36959031 132.04169871 15.41025819 128.93110774 15.44921875 125.8203125 C15.49337849 122.69172767 15.54019446 119.56323606 15.59202576 116.43476868 C15.62359594 114.5004237 15.65060007 112.56599687 15.67225647 110.6315155 C15.7316813 106.74751841 15.88504766 103.14281422 16.52709961 99.30004883 C16.92611788 95.78581665 16.31835445 94.29407143 14.88671875 91.1328125 C14.62792969 88.625 14.62792969 88.625 14.62109375 86.0078125 C14.61722656 84.57695312 14.61722656 84.57695312 14.61328125 83.1171875 C14.62101562 82.13234375 14.62875 81.1475 14.63671875 80.1328125 C14.62898438 79.14796875 14.62125 78.163125 14.61328125 77.1484375 C14.61585937 76.19453125 14.6184375 75.240625 14.62109375 74.2578125 C14.62334961 73.39414062 14.62560547 72.53046875 14.62792969 71.640625 C14.88671875 69.1328125 14.88671875 69.1328125 16.88671875 64.1328125 C8.63671875 64.1328125 0.38671875 64.1328125 -8.11328125 64.1328125 C-7.99309453 56.60707833 -7.87031177 49.08147778 -7.7409668 41.5559082 C-7.69778226 38.99831619 -7.6560963 36.44069841 -7.6159668 33.88305664 C-7.55786308 30.19669849 -7.49428605 26.51046812 -7.4296875 22.82421875 C-7.41297501 21.68948624 -7.39626251 20.55475372 -7.37904358 19.38563538 C-7.02133015 0.00815147 -7.02133015 0.00815147 0 0 Z " fill="#BC6144" transform="translate(1459.11328125,245.8671875)"/>
<path d="M0 0 C-0.53684658 18.72263053 -1.53849177 37.32674916 -3 56 C-10.92 56 -18.84 56 -27 56 C-25.68 53.36 -24.36 50.72 -23 48 C-22.95614304 44.65404064 -22.95614304 44.65404064 -24 42 C-27.52130798 40.23934601 -31.14708717 40.43223375 -34.88671875 41.578125 C-41.6156512 44.58089404 -46.84464541 49.84464541 -52 55 C-53.7492872 55.09365006 -55.50236254 55.11744438 -57.25415039 55.11352539 C-58.37523697 55.11344986 -59.49632355 55.11337433 -60.65138245 55.11329651 C-62.48103798 55.10555458 -62.48103798 55.10555458 -64.34765625 55.09765625 C-65.58921982 55.0962413 -66.83078339 55.09482635 -68.10997009 55.09336853 C-71.41605491 55.08870591 -74.72207146 55.07971497 -78.02813721 55.06866455 C-81.3996115 55.05844827 -84.77109283 55.05387045 -88.14257812 55.04882812 C-94.76173775 55.03777395 -101.38086493 55.02101736 -108 55 C-103.71787926 63.57928112 -99.4225811 72.15184432 -95.11502075 80.71838379 C-92.96587936 84.99408082 -90.81938372 89.27110091 -88.67387581 93.54862213 C-87.09521411 96.69561828 -85.51507061 99.84185104 -83.93139648 102.98632812 C-46.67157429 176.98369496 -46.67157429 176.98369496 -49 185 C-50.47522757 187.2297702 -52.19393887 189.00870183 -54 191 C-50.7 191 -47.4 191 -44 191 C-38.29036976 202.29786098 -32.77686202 213.67712179 -27.375 225.125 C-26.58884672 226.7878706 -25.80263154 228.45071193 -25.01635742 230.11352539 C-18.49646145 243.91114241 -12.01680895 257.72779681 -5.60009766 271.57373047 C-4.42990613 274.07944725 -3.24758739 276.57715366 -2.05224609 279.07080078 C-1.72790085 279.75231705 -1.4035556 280.43383331 -1.06938171 281.13600159 C-0.44013847 282.45737157 0.19360789 283.77660922 0.83244324 285.09336853 C2.17864111 287.93126232 3 289.81575214 3 293 C1.52905273 294.2199707 1.52905273 294.2199707 -0.56640625 295.42578125 C-1.7431189 296.11571167 -1.7431189 296.11571167 -2.94360352 296.81958008 C-3.80783936 297.31224365 -4.6720752 297.80490723 -5.5625 298.3125 C-7.39641039 299.38443002 -9.2297197 300.4573889 -11.0625 301.53125 C-12.03058594 302.09457031 -12.99867188 302.65789062 -13.99609375 303.23828125 C-19.05378284 306.20449423 -24.05701721 309.25929141 -29.0625 312.3125 C-29.98812744 312.87428955 -30.91375488 313.4360791 -31.86743164 314.01489258 C-38.29858918 317.92718487 -44.66290583 321.93724998 -51 326 C-53.58967173 323.41032827 -54.08971667 321.11851271 -55.20703125 317.62890625 C-55.41430344 316.99194321 -55.62157562 316.35498016 -55.83512878 315.69871521 C-56.71931551 312.98118304 -57.58964882 310.25927744 -58.46020508 307.53735352 C-61.43480852 298.27036315 -64.67371114 289.29969957 -69.23120117 280.66821289 C-70.21232909 278.80836294 -71.11449856 276.90723387 -72 275 C-71 272 -71 272 -69.29296875 271.0078125 C-68.25076172 270.57082031 -68.25076172 270.57082031 -67.1875 270.125 C-63.40479265 268.32532774 -61.09806574 266.75903445 -59 263 C-58.64205358 259.59950897 -58.73466045 256.98175634 -59.625 253.6875 C-62.32391028 250.37520101 -66.13688494 250.10154295 -70.1875 249.625 C-73.12763166 249.70264607 -73.12763166 249.70264607 -74.75 252 C-75.1625 252.66 -75.575 253.32 -76 254 C-76.66 254 -77.32 254 -78 254 C-78.23372314 253.38745361 -78.46744629 252.77490723 -78.70825195 252.14379883 C-87.22687098 229.92350909 -96.49283502 208.03044958 -105.81445312 186.13769531 C-107.40564265 182.40003061 -108.99035407 178.65972281 -110.56896973 174.91673279 C-116.31871301 161.28721089 -122.3083816 147.77479244 -128.4375 134.3125 C-128.77929291 133.55934509 -129.12108582 132.80619019 -129.47323608 132.0302124 C-133.03414455 124.19520231 -136.60222808 116.41175657 -141 109 C-142.78558087 111.67837131 -143.85107338 113.91990371 -145.00854492 116.89404297 C-145.40102417 117.89699402 -145.79350342 118.89994507 -146.19787598 119.93328857 C-146.8327594 121.57119354 -146.8327594 121.57119354 -147.48046875 123.2421875 C-147.92507446 124.38020813 -148.36968018 125.51822876 -148.82775879 126.69073486 C-149.78464826 129.14031049 -150.74034639 131.59031438 -151.69418335 134.04107666 C-154.20262395 140.48448377 -156.72671421 146.92177046 -159.25 153.359375 C-159.5007749 153.99943104 -159.7515498 154.63948708 -160.00992393 155.29893875 C-166.52579156 171.92665858 -173.21040253 188.48238208 -180 205 C-180.36031311 205.87662292 -180.72062622 206.75324585 -181.09185791 207.65643311 C-189.88542681 229.0419764 -198.73820992 250.40303914 -207.625 271.75 C-207.94718506 272.5243338 -208.26937012 273.2986676 -208.60131836 274.09646606 C-209.49640064 276.24695044 -210.3925159 278.39700076 -211.2890625 280.546875 C-211.79131348 281.75182617 -212.29356445 282.95677734 -212.81103516 284.19824219 C-213.49820019 285.81752472 -214.21332705 287.42665409 -215 289 C-216.6045556 288.85851011 -218.20863767 288.71164314 -219.8125 288.5625 C-220.70582031 288.48128906 -221.59914063 288.40007812 -222.51953125 288.31640625 C-225 288 -225 288 -228 287 C-227.69964844 287.78503906 -227.39929687 288.57007813 -227.08984375 289.37890625 C-226.70957031 290.42949219 -226.32929688 291.48007812 -225.9375 292.5625 C-225.36322266 294.11130859 -225.36322266 294.11130859 -224.77734375 295.69140625 C-223.06802042 302.96676735 -225.94805241 308.82037223 -228.9375 315.3125 C-229.29779297 316.12267578 -229.65808594 316.93285156 -230.02929688 317.76757812 C-232.7209584 323.7209584 -232.7209584 323.7209584 -235 326 C-245.92918939 319.51030473 -256.78519361 312.92672188 -267.51220703 306.10742188 C-272.95599053 302.64877312 -278.43523241 299.26161185 -284 296 C-282.31722721 290.0201467 -279.39854719 284.76923467 -276.5 279.3125 C-276.02046875 278.40177734 -275.5409375 277.49105469 -275.046875 276.55273438 C-273.00118128 272.66960699 -270.94908648 268.78988161 -268.89297485 264.91226196 C-262.5095504 252.86842166 -256.2780895 240.75701086 -250.1875 228.5625 C-249.75457642 227.69671326 -249.32165283 226.83092651 -248.87561035 225.93890381 C-241.88593396 211.94577543 -235.17840288 197.85079099 -228.671875 183.62597656 C-225.75793696 177.30620323 -222.77575504 171.0186075 -219.80215454 164.72674561 C-214.2573183 152.99183476 -208.77594465 141.2357591 -203.50390625 129.375 C-202.69941532 127.56959698 -201.88393277 125.76786554 -201 124 C-199.89591797 124.05220703 -199.89591797 124.05220703 -198.76953125 124.10546875 C-191.33885807 124.46906971 -191.33885807 124.46906971 -185 121 C-182.53675931 117.30513897 -182.61008312 115.36706908 -183 111 C-184.28997605 108.66191842 -185.46827979 108.16570373 -187.98046875 107.3828125 C-189.97376692 106.86773014 -191.98644472 106.42911834 -194 106 C-192.45259522 100.97799968 -190.40364894 96.31860435 -188.19140625 91.56640625 C-187.8240184 90.77024399 -187.45663055 89.97408173 -187.07810974 89.15379333 C-185.90920646 86.62197837 -184.73606268 84.09215812 -183.5625 81.5625 C-182.3932784 79.0360643 -181.22496752 76.50921215 -180.05760193 73.98191833 C-179.33315396 72.41417098 -178.60752544 70.84696842 -177.88050842 69.28041077 C-175.84513891 64.88313415 -173.88727174 60.46292906 -172 56 C-172.75310959 55.99635437 -173.50621918 55.99270874 -174.28215027 55.98895264 C-181.38876152 55.9510441 -188.49491049 55.89415946 -195.60117626 55.81609726 C-199.25439913 55.7766323 -202.90738133 55.74443941 -206.56079102 55.72900391 C-210.08834999 55.71383023 -213.6152473 55.67937382 -217.14251137 55.63169098 C-219.13927272 55.60969117 -221.13622075 55.60752687 -223.13310242 55.60565186 C-224.35399063 55.58593323 -225.57487885 55.5662146 -226.83276367 55.54589844 C-227.90531906 55.53701599 -228.97787445 55.52813354 -230.08293152 55.51898193 C-233.67917631 54.87916628 -235.29266534 53.38548796 -238 51 C-241.10063523 49.96645492 -243.31444068 49.86635004 -246.5625 49.875 C-248.01849609 49.87113281 -248.01849609 49.87113281 -249.50390625 49.8671875 C-251.99952953 49.83349047 -251.99952953 49.83349047 -254 51 C-253.67 52.98 -253.34 54.96 -253 57 C-254.87430083 57.17435357 -256.74951689 57.33886064 -258.625 57.5 C-259.66914063 57.5928125 -260.71328125 57.685625 -261.7890625 57.78125 C-267.8516382 58.096189 -273.92924958 58 -280 58 C-280 39.52 -280 21.04 -280 2 C-247.76006711 2 -247.76006711 2 -232.25 2.5 C-230.64324073 2.54856128 -229.03646978 2.59673744 -227.4296875 2.64453125 C-223.61964427 2.75865304 -219.80979016 2.87773292 -216 3 C-215.83564453 4.04800781 -215.83564453 4.04800781 -215.66796875 5.1171875 C-215.50941406 6.02726563 -215.35085937 6.93734375 -215.1875 7.875 C-215.03667969 8.77992188 -214.88585938 9.68484375 -214.73046875 10.6171875 C-214.16948699 13.34412478 -214.16948699 13.34412478 -211 15 C-207.40153838 15.33319089 -204.76491943 15.29139788 -201.375 14 C-198.92609367 12.25815295 -198.92609367 12.25815295 -198.23461914 10.07006836 C-197.14081779 7.39683352 -196.19787387 5.90102233 -194 4 C-188.69229794 2.94509826 -183.43362013 3.31059195 -178.0625 3.5625 C-175.66946094 3.62867494 -173.27636477 3.68014775 -170.88296509 3.73141479 C-169.26043835 3.76735846 -167.63800948 3.80801805 -166.01571655 3.853302 C-158.74339423 4.04977167 -151.51696537 3.8274716 -144.25 3.5 C-126.17180426 2.76627671 -108.08932071 2.90751881 -90 3 C-90.54140625 4.04800781 -90.54140625 4.04800781 -91.09375 5.1171875 C-91.5578125 6.02726563 -92.021875 6.93734375 -92.5 7.875 C-92.9640625 8.77992188 -93.428125 9.68484375 -93.90625 10.6171875 C-95.13905589 12.86596859 -95.13905589 12.86596859 -95 15 C-90.71 16.32 -86.42 17.64 -82 19 C-81.814375 16.9890625 -81.814375 16.9890625 -81.625 14.9375 C-81.24158357 10.78382206 -80.16832851 6.99896302 -79 3 C-70.61935141 2.60528057 -62.23855681 2.21388013 -53.85756397 1.82654572 C-49.96461815 1.6465292 -46.07172924 1.46543252 -42.17895508 1.28173828 C-38.41189555 1.10401831 -34.64470684 0.92930409 -30.87741661 0.75654602 C-29.45070243 0.69061591 -28.02403522 0.62366013 -26.59742165 0.55558777 C-17.72686401 0.1331447 -8.88181434 -0.08942198 0 0 Z " fill="#010101" transform="translate(3097,189)"/>
<path d="M0 0 C2.9958647 2.67551388 5.89014052 5.44622526 8.78125 8.234375 C9.58304688 8.97300781 10.38484375 9.71164063 11.2109375 10.47265625 C22.36588452 21.02932756 33.29708913 36.20828878 34.15234375 51.984375 C34.40378315 62.73596478 33.46059935 71.0958309 29.55175781 81.15527344 C24.88399377 93.75054548 22.04950879 106.19066468 22.18261719 119.65063477 C22.17505932 126.27573228 20.61116213 131.26723588 17.78125 137.234375 C17.29785156 138.27207031 16.81445312 139.30976563 16.31640625 140.37890625 C3.18780252 164.16361804 -22.13344108 177.67032615 -47.390625 184.98046875 C-58.27513861 187.92193144 -69.32461988 189.44879672 -80.59375 189.671875 C-81.63716553 189.70547119 -81.63716553 189.70547119 -82.70166016 189.73974609 C-87.50464189 189.71721915 -89.77546368 188.49610623 -93.21875 185.234375 C-95.86052897 183.91348551 -98.01444788 184.00560177 -100.96875 183.875 C-102.13535156 183.81054688 -103.30195313 183.74609375 -104.50390625 183.6796875 C-106.94852542 183.55115863 -109.39390232 183.43620263 -111.83984375 183.3359375 C-118.80246056 182.92412884 -123.73077526 181.88071167 -129.79248047 178.44677734 C-134.05018582 176.31920995 -138.63072891 175.75192206 -143.28125 174.921875 C-155.24656 172.48446021 -160.51729139 168.11722626 -167.44140625 158.296875 C-170.49717886 154.75083557 -174.3438007 152.24835634 -178.12109375 149.51953125 C-192.08655058 139.21714507 -202.51386302 126.78468819 -205.21875 109.234375 C-206.12243773 103.20278477 -206.3154979 97.32949299 -206.21875 91.234375 C-205.59355469 90.96238281 -204.96835938 90.69039063 -204.32421875 90.41015625 C-200.70281537 88.3878141 -199.70043312 84.81079248 -198.53125 80.984375 C-197.54504071 72.91011674 -197.54504071 72.91011674 -199.71875 65.296875 C-202.49910833 59.62031008 -201.99067237 53.97898788 -200.3046875 47.984375 C-196.72157549 38.18282988 -192.19893225 29.12635058 -184.21875 22.234375 C-183.55875 22.234375 -182.89875 22.234375 -182.21875 22.234375 C-181.55875 17.284375 -180.89875 12.334375 -180.21875 7.234375 C-177.90875 6.574375 -175.59875 5.914375 -173.21875 5.234375 C-170.59376815 3.62363043 -170.59376815 3.62363043 -168.28125 1.609375 C-167.41628906 0.89265625 -166.55132813 0.1759375 -165.66015625 -0.5625 C-163.51611163 -2.49728587 -161.63793144 -4.48974284 -159.71875 -6.640625 C-155.77858623 -10.70140602 -151.24007682 -13.33221199 -146.34375 -16.078125 C-145.60060547 -16.49884277 -144.85746094 -16.91956055 -144.09179688 -17.35302734 C-134.78295772 -22.39497706 -125.42867466 -24.32259458 -114.96875 -25.453125 C-113.80706299 -25.57905029 -112.64537598 -25.70497559 -111.44848633 -25.8347168 C-71.26873732 -29.7897644 -31.52265 -27.47634407 0 0 Z " fill="#010101" transform="translate(2502.21875,165.765625)"/>
<path d="M0 0 C2.05496793 0.73463841 4.09819699 1.50339163 6.125 2.3125 C7.39730469 2.78623047 7.39730469 2.78623047 8.6953125 3.26953125 C16.28451976 6.52727777 21.83881638 12.15926145 27.64892578 17.8671875 C28.94585337 19.13708683 30.26610324 20.38307547 31.58984375 21.625 C38.44394524 28.16000924 41.68915971 33.70222165 42.125 43.3125 C43.135625 43.18875 44.14625 43.065 45.1875 42.9375 C50.33671787 43.4279017 52.70359501 45.58181546 56.125 49.3125 C57.55162219 52.16574437 57.43533868 54.14704549 57.125 57.3125 C54.86676677 60.86115222 52.88467086 62.574837 49.125 64.3125 C49.08012451 65.25343506 49.03524902 66.19437012 48.98901367 67.16381836 C45.8955392 130.10042164 45.8955392 130.10042164 25.64892578 149.93554688 C14.1643617 160.3125 14.1643617 160.3125 9.125 160.3125 C9.063125 161.240625 9.00125 162.16875 8.9375 163.125 C8.125 166.3125 8.125 166.3125 5.5625 168.1875 C4.758125 168.55875 3.95375 168.93 3.125 169.3125 C3.125 167.9925 3.125 166.6725 3.125 165.3125 C-1.57551294 165.23544241 -6.13418148 165.29632393 -10.80859375 165.80151367 C-17.57992842 166.43949461 -24.32735072 166.51108319 -31.125 166.55078125 C-31.78520142 166.55485678 -32.44540283 166.5589323 -33.12561035 166.56313133 C-36.61368473 166.58380329 -40.10172186 166.59819062 -43.58984375 166.60766602 C-47.15687543 166.6187545 -50.72328765 166.65323624 -54.2901001 166.69283772 C-57.06820715 166.71916342 -59.84616888 166.7273713 -62.62438965 166.73094749 C-64.56902016 166.73807604 -66.5135505 166.76442174 -68.45800781 166.79133606 C-80.55268697 166.76197072 -90.05559442 163.78245744 -98.875 155.3125 C-107.18153982 146.18177043 -109.48917219 137.34236284 -111.8125 125.4375 C-112.3373159 122.81822599 -112.86820678 120.20021882 -113.3984375 117.58203125 C-113.65206055 116.32471191 -113.90568359 115.06739258 -114.16699219 113.77197266 C-116.54272592 102.16364611 -119.50013195 90.73389618 -122.7265625 79.3359375 C-122.91814941 78.65289551 -123.10973633 77.96985352 -123.30712891 77.26611328 C-123.83148733 75.46219406 -124.41327875 73.67523546 -125 71.890625 C-128.43891517 57.82791833 -126.15322039 42.6788192 -119.1875 30.125 C-112.45497095 19.75824508 -103.74010023 12.48249553 -93.875 5.3125 C-93.1221875 4.75046875 -92.369375 4.1884375 -91.59375 3.609375 C-86.94093354 0.17890863 -83.87757379 -0.8141233 -78.15014648 -0.78515625 C-76.3883329 -0.78020142 -76.3883329 -0.78020142 -74.59092712 -0.77514648 C-72.6877346 -0.76269897 -72.6877346 -0.76269897 -70.74609375 -0.75 C-68.75936191 -0.74421565 -66.77263004 -0.73843673 -64.78589725 -0.73298645 C-61.29474546 -0.72204416 -57.80362637 -0.70456318 -54.3125 -0.6875 C-50.14478552 -0.66714866 -45.97709114 -0.64791429 -41.80934143 -0.63647461 C-39.21291873 -0.62890959 -36.61650471 -0.61680764 -34.02012634 -0.59985352 C-32.84873611 -0.59655029 -31.67734589 -0.59324707 -30.47045898 -0.58984375 C-29.43582016 -0.58460693 -28.40118134 -0.57937012 -27.33518982 -0.57397461 C-5.37070068 -1.58752535 -5.37070068 -1.58752535 0 0 Z " fill="#FEFEFE" transform="translate(678.875,309.6875)"/>
<path d="M0 0 C0.33 0 0.66 0 1 0 C1.99 6.93 1.99 6.93 3 14 C17.04982429 15.52561483 31.11182534 16.86220093 45.1875 18.125 C47.22071474 18.30846504 49.25391793 18.49205815 51.28710938 18.67578125 C56.19127495 19.11865715 61.0955914 19.5598238 66 20 C65.88865739 24.27130152 65.75838882 28.54183461 65.625 32.8125 C65.5940625 34.00810547 65.563125 35.20371094 65.53125 36.43554688 C65.31887508 42.9306799 64.75003789 49.08919878 63.48925781 55.46166992 C61.45346927 66.0235928 61.84572907 76.79167802 61.875 87.5 C61.87588623 88.43407684 61.87677246 89.36815369 61.87768555 90.33053589 C61.89531129 106.33623301 62.20985335 122.32647839 62.6418457 138.32568359 C63.00419358 151.88782397 63.12516125 165.43252051 63 179 C60.25943885 179.91352038 58.37842688 180.18176964 55.53491211 180.30761719 C54.63301651 180.34832336 53.73112091 180.38902954 52.80189514 180.43096924 C51.3356797 180.48834259 51.3356797 180.48834259 49.83984375 180.546875 C48.81825668 180.58850769 47.79666962 180.63014038 46.74412537 180.67303467 C36.37992574 181.06760164 26.01938774 181.22053132 15.64819336 181.24023438 C12.56662449 181.24998695 9.48571251 181.28121411 6.40429688 181.3125 C-7.9318667 181.38575016 -21.8256063 180.12164454 -36 178 C-36.66 180.31 -37.32 182.62 -38 185 C-41 181.375 -41 181.375 -41 178 C-41.63164063 178.05800781 -42.26328125 178.11601562 -42.9140625 178.17578125 C-54.61046626 178.76565752 -65.11181391 174.88540475 -73.88671875 167.14453125 C-85.8647061 154.98942024 -89.05544641 136.88492377 -89.01953125 120.375 C-89.02887695 119.394104 -89.03822266 118.41320801 -89.04785156 117.40258789 C-89.0574285 115.46405624 -89.02841151 113.52485096 -88.95605469 111.58764648 C-88.9731022 108.79812191 -89.08971008 106.64160372 -90 104 C-92.13419854 101.96627466 -94.22264165 100.62202902 -96.81396484 99.22631836 C-100.07748065 97.3955567 -101.45189436 95.36544705 -103 92 C-103.62292138 88.96325827 -103.45716418 87.20014926 -103 84 C-100.82425584 81.30894802 -99.08934144 79.54467072 -96 78 C-94.12620395 77.92966231 -92.24998898 77.9156978 -90.375 77.9375 C-88.87066406 77.95103516 -88.87066406 77.95103516 -87.3359375 77.96484375 C-86.56507813 77.97644531 -85.79421875 77.98804688 -85 78 C-85.04640625 77.35675781 -85.0928125 76.71351563 -85.140625 76.05078125 C-85.71669292 61.62850932 -79.99208658 48.43209696 -70.5625 37.6875 C-69.05973917 36.10761071 -67.54044118 34.54317246 -66 33 C-65.45859375 32.44699219 -64.9171875 31.89398438 -64.359375 31.32421875 C-51.15995002 18.95809081 -33.51651258 13.79808177 -15.8125 13.875 C-14.91080078 13.87113281 -14.00910156 13.86726563 -13.08007812 13.86328125 C-12.21447266 13.86457031 -11.34886719 13.86585938 -10.45703125 13.8671875 C-9.67303955 13.86831543 -8.88904785 13.86944336 -8.08129883 13.87060547 C-6 14 -6 14 -3 15 C-2.86722656 14.25234375 -2.73445313 13.5046875 -2.59765625 12.734375 C-2.42105469 11.74953125 -2.24445313 10.7646875 -2.0625 9.75 C-1.88847656 8.77546875 -1.71445313 7.8009375 -1.53515625 6.796875 C-1.09620271 4.50278205 -0.59651408 2.25708029 0 0 Z " fill="#FEFEFE" transform="translate(1030,292)"/>
<path d="M0 0 C20.46 0 40.92 0 62 0 C61.67 6.93 61.34 13.86 61 21 C60.78334208 33.02451435 61.38683317 44.99432397 62 57 C61.37424072 57.33410889 60.74848145 57.66821777 60.10375977 58.01245117 C59.28705811 58.45564697 58.47035645 58.89884277 57.62890625 59.35546875 C56.81752197 59.79270264 56.0061377 60.22993652 55.17016602 60.68041992 C52.28044654 62.43752801 51.11709515 63.79766057 50 67 C49.49126639 71.31575678 49.51397211 74.27095816 52 78 C54.37124598 78.58488562 54.37124598 78.58488562 57 78 C58.69940437 76.70865173 60.37044054 75.37843807 62 74 C61.85666733 75.20232773 61.71333466 76.40465546 61.56565857 77.64341736 C59.76262258 94.0755613 59.78213759 110.43949188 59.89600682 126.94186902 C59.92007835 130.87519272 59.92972367 134.80854887 59.94029236 138.7419281 C59.97401782 150.37791171 60.02730508 162.01379296 60.0894165 173.6496582 C60.13790659 182.75062677 60.17993732 191.85151323 60.20092481 200.95259231 C60.21241217 205.61786583 60.23774779 210.28279082 60.27367222 214.94793713 C60.29286383 217.83913221 60.29954417 220.73025673 60.30273628 223.62150955 C60.3086647 225.59683561 60.32962821 227.57209865 60.3510437 229.5473175 C60.34919319 231.31477325 60.34919319 231.31477325 60.3473053 233.11793518 C60.35266831 234.13928338 60.35803133 235.16063158 60.36355686 236.21292973 C59.94180732 239.44611206 58.74844478 241.28597247 57 244 C57.08816416 247.52656634 57.85594256 248.82628367 60.125 251.5625 C62 254 62 254 61.828125 255.90234375 C60.82181796 258.45133847 59.4841448 259.99180984 57.625 262 C55.25892864 264.57750752 53.05962208 267.1695991 51 270 C51.804375 270.3403125 51.804375 270.3403125 52.625 270.6875 C55.82717114 272.45712089 58.70800511 274.12399758 61 277 C61.85753857 280.06105259 61.77061599 283.01204376 61.69702148 286.17382812 C61.70074516 287.54811478 61.70074516 287.54811478 61.70454407 288.95016479 C61.7054619 291.97803518 61.66363063 295.00370333 61.62109375 298.03125 C61.61243188 300.14529565 61.60629037 302.25935299 61.60255432 304.37341309 C61.58531806 309.94520051 61.53122771 315.51606782 61.47027588 321.08752441 C61.4268843 325.60525866 61.40916123 330.12291392 61.39300442 334.64081573 C61.37326408 340.06267938 61.34282268 345.48446013 61.30859375 350.90625 C61.30216795 351.9270314 61.29574215 352.94781281 61.28912163 353.99952698 C61.21136798 364.7064911 61.07240733 375.3377918 60 386 C39.31413338 389.46828901 18.90248228 389.32023759 -2 389 C-1.7359436 387.04489502 -1.7359436 387.04489502 -1.46655273 385.05029297 C-0.94376157 380.33637203 -1.14342003 375.90715614 -1.53515625 371.1953125 C-3.15800247 345.47767868 -3.15800247 345.47767868 0.76220703 339.16015625 C5.38909364 334.83057558 10.8936138 332.50313821 17 331 C13.16304519 327.16304519 6.37867372 328.7171565 1 328 C1 272.23 1 216.46 1 159 C2.84505949 160.84505949 3.82393049 162.3067023 5.0625 164.5625 C6.65070134 167.740301 6.65070134 167.740301 8 169 C10.41482413 169.50059916 10.41482413 169.50059916 13 169 C16.11294847 165.88705153 16.24432676 162.7099509 16.375 158.5 C16.23802323 154.26513489 16.1262459 151.1262459 13 148 C9.98385705 147.17768475 9.98385705 147.17768475 7 147 C6.34 146.67 5.68 146.34 5 146 C5.28875 145.50371094 5.5775 145.00742187 5.875 144.49609375 C8.44075276 139.80112255 9.53686627 136.47603598 9 131 C8.67 130.01 8.34 129.02 8 128 C5.49552484 126.78130071 5.49552484 126.78130071 3 126 C2.22644527 106.40406762 1.61136903 86.80591221 1.07006836 67.20239258 C0.96023437 63.23167501 0.84588035 59.2611011 0.73049068 55.29054165 C0.63962779 52.13534749 0.55212681 48.98006571 0.46542549 45.82475471 C0.42476733 44.36414294 0.38298693 42.90356175 0.33982658 41.44302177 C-0.06646748 27.62010248 0 13.84091041 0 0 Z " fill="#000000" transform="translate(3184,157)"/>
<path d="M0 0 C0.33 0 0.66 0 1 0 C1.495 6.93 1.495 6.93 2 14 C4.0625 13.95875 6.125 13.9175 8.25 13.875 C12.76326051 13.875 17.00381745 14.03672619 21.4375 14.875 C27.22970479 15.95959612 33.01004683 16.54779734 38.875 17.0625 C39.7405249 17.14161621 40.6060498 17.22073242 41.49780273 17.30224609 C48.46505323 17.89354197 55.43812474 18.22088236 62.42236328 18.52905273 C63.95057457 18.59744984 63.95057457 18.59744984 65.50965881 18.6672287 C68.00640807 18.77887121 70.50318781 18.88977544 73 19 C73.02358739 32.89317592 73.04103691 46.78634865 73.05181217 60.67954063 C73.05698868 67.13353555 73.0639889 73.58751683 73.07543945 80.04150391 C73.08645727 86.29206091 73.09231601 92.54260495 73.09487724 98.79317093 C73.09669799 101.15527169 73.10025148 103.5173719 73.10573006 105.87946701 C73.13361051 118.42080597 73.01182986 130.9410245 72.55639648 143.47509766 C72.51754113 144.58748999 72.47868578 145.69988232 72.43865299 146.84598351 C72.3971786 147.87187395 72.35570421 148.8977644 72.31297302 149.95474243 C72.25891879 151.31109519 72.25891879 151.31109519 72.20377254 152.69484901 C72 155 72 155 71 158 C67.58487769 159.37155965 63.78039008 159.28495415 60.14453125 159.5 C59.48345871 159.54060547 58.82238617 159.58121094 58.14128113 159.62304688 C56.0318836 159.75223391 53.922238 159.87650785 51.8125 160 C41.51568024 160.55486067 41.51568024 160.55486067 31.25390625 161.52734375 C15.68720527 163.39791029 -0.30471036 163.11878651 -15.97515869 163.23117065 C-17.46686897 163.24351786 -18.95854809 163.26086007 -20.45013428 163.28372192 C-39.06612049 163.55132178 -58.44421174 160.62031914 -73 148 C-86.53357176 134.49684076 -88.43533541 112.8836898 -88.5078125 94.79296875 C-88.50555664 94.0045459 -88.50330078 93.21612305 -88.50097656 92.40380859 C-88.49998882 89.97248137 -88.54215525 87.54416902 -88.5859375 85.11328125 C-88.6673552 74.46674805 -87.19228335 67.51288901 -79.9375 59.5 C-75.88794579 55.67197502 -71.34362109 52.49180011 -66.8671875 49.1875 C-61.64142977 45.20054588 -57.60932185 41.09554208 -54.0625 35.5625 C-48.18984644 26.49919214 -41.1623406 20.80673762 -31 17 C-26.08633608 16.08814827 -21.23856336 15.8072544 -16.25 15.625 C-14.96867187 15.55667969 -13.68734375 15.48835938 -12.3671875 15.41796875 C-9.24514285 15.25487687 -6.12408702 15.11601554 -3 15 C-2.86722656 14.16855469 -2.73445313 13.33710938 -2.59765625 12.48046875 C-2.42105469 11.39378906 -2.24445313 10.30710937 -2.0625 9.1875 C-1.88847656 8.10855469 -1.71445313 7.02960938 -1.53515625 5.91796875 C-1 3 -1 3 0 0 Z " fill="#FEFEFE" transform="translate(1976,293)"/>
<path d="M0 0 C0.85474915 -0.00131927 1.70949829 -0.00263855 2.59014893 -0.0039978 C5.38565643 -0.00592148 8.1810651 0.0004351 10.9765625 0.0078125 C11.92086121 0.00869873 12.86515991 0.00958496 13.83807373 0.01049805 C29.77798811 0.02812282 45.67856608 0.36504555 61.6015625 1.1328125 C61.59108887 1.85944092 61.58061523 2.58606934 61.56982422 3.3347168 C61.26476499 28.0271375 62.30889636 52.40145598 66.015625 76.8515625 C66.47874217 79.97659665 66.74436943 82.96509516 66.6015625 86.1328125 C64.6215625 85.8028125 62.6415625 85.4728125 60.6015625 85.1328125 C61.2261394 89.89524992 61.2261394 89.89524992 62.2890625 94.5703125 C62.6015625 97.1328125 62.6015625 97.1328125 61.63549805 100.72314453 C60.44695295 105.27950291 60.32893295 109.56149403 60.37109375 114.25 C60.37155197 115.10602814 60.37201019 115.96205627 60.3724823 116.84402466 C60.37548848 118.6509134 60.38332543 120.45779993 60.39575195 122.26464844 C60.41378069 124.96559348 60.41626261 127.66618903 60.41601562 130.3671875 C60.43256909 138.52126457 60.56481447 146.64567642 61.06640625 154.78515625 C61.72993431 165.62522943 62.10989182 176.46393836 62.28125 187.32299805 C62.32853136 189.67475331 62.39725694 192.0261655 62.48632812 194.37670898 C63.19815585 213.60800976 63.19815585 213.60800976 60.4831543 217.90142822 C57.6448366 220.70506205 54.40387042 222.10812406 50.6015625 223.1328125 C55.5515625 225.6078125 55.5515625 225.6078125 60.6015625 228.1328125 C60.6015625 250.5728125 60.6015625 273.0128125 60.6015625 296.1328125 C49.52707531 297.97856036 39.0274742 299.66498729 27.9140625 300.3203125 C26.64546387 300.40071777 25.37686523 300.48112305 24.06982422 300.56396484 C12.57410508 301.24001403 1.11221433 301.33634072 -10.3984375 301.1328125 C-10.59356527 283.18105792 -10.47321314 265.68766352 -6.3984375 248.1328125 C-6.3984375 247.8028125 -6.3984375 247.4728125 -6.3984375 247.1328125 C-7.0584375 247.1328125 -7.7184375 247.1328125 -8.3984375 247.1328125 C-8.42166257 236.46639754 -8.43940427 225.79998865 -8.45024967 215.1335535 C-8.45545631 210.180091 -8.46251348 205.22664587 -8.47387695 200.27319336 C-8.48478492 195.48806527 -8.49073104 190.70295383 -8.49331474 185.91781425 C-8.49515478 184.09708837 -8.4987478 182.27636335 -8.50416756 180.45564461 C-8.5114831 177.89497063 -8.51242404 175.33436447 -8.51196289 172.77368164 C-8.5173558 171.65805092 -8.5173558 171.65805092 -8.52285767 170.5198822 C-8.51413362 166.00926498 -8.19182978 161.61808331 -7.63324738 157.14170074 C-7.2874158 154.18297941 -7.18050568 151.22999817 -7.08203125 148.25390625 C-7.03997559 147.0097998 -6.99791992 145.76569336 -6.95458984 144.48388672 C-6.91543457 143.19240723 -6.8762793 141.90092773 -6.8359375 140.5703125 C-6.81509094 139.90694885 -6.79424438 139.24358521 -6.77276611 138.56011963 C-5.44788549 122.80260576 -5.44788549 122.80260576 -6.89453125 107.23828125 C-10.20297052 93.41464741 -8.38151098 71.46957565 -1.3984375 59.1328125 C-2.33816406 58.07707031 -2.33816406 58.07707031 -3.296875 57 C-13.0348101 43.71441569 -10.81258959 16.98563415 -10.3984375 1.1328125 C-7.14690602 -0.49295324 -3.57216485 -0.00864665 0 0 Z " fill="#BC6145" transform="translate(1282.3984375,241.8671875)"/>
<path d="M0 0 C10.89 0 21.78 0 33 0 C34.32 2.31 35.64 4.62 37 7 C37.49854492 6.02208496 37.99708984 5.04416992 38.51074219 4.03662109 C41 1 41 1 44.57519531 0.31884766 C45.99319346 0.31979212 47.41142525 0.35338739 48.828125 0.4140625 C49.95163361 0.42679703 49.95163361 0.42679703 51.09783936 0.43978882 C53.48337469 0.4733007 55.86549212 0.54856114 58.25 0.625 C59.86974273 0.65510313 61.48953863 0.68247835 63.109375 0.70703125 C67.07422775 0.77308277 71.03653509 0.87657687 75 1 C75.31743743 12.60410152 75.00847757 23.68960761 73.13964844 35.15722656 C72.01346965 42.24709444 71.54710352 49.25573298 71.37915039 56.42993164 C71.20930771 62.08057984 70.4387202 66.64049886 67.4375 71.5625 C63.97249606 77.43794146 64.81636618 84.52156608 64.8125 91.125 C64.80025391 92.20265625 64.78800781 93.2803125 64.77539062 94.390625 C64.75876627 103.58943686 65.29127375 112.41287063 69.625 120.6875 C71.69363456 125.40030529 72.29523278 129.10980805 72.23046875 134.24609375 C72.2219136 134.93889435 72.21335846 135.63169495 72.20454407 136.3454895 C72.06534398 143.86229446 71.49015336 151.34647907 70.88909912 158.83789062 C67.55286026 200.82419912 65.75730314 242.89394556 65 285 C46.85 285 28.7 285 10 285 C9.505 277.41 9.01 269.82 8.5 262 C8.34337891 259.61910156 8.18675781 257.23820312 8.02539062 254.78515625 C7.9021401 252.87761731 7.77908061 250.97006602 7.65625 249.0625 C7.59147461 248.08861328 7.52669922 247.11472656 7.45996094 246.11132812 C7.11592688 240.72692212 6.93311532 235.39536451 7 230 C8.134375 229.54625 9.26875 229.0925 10.4375 228.625 C14.04721692 227.42904194 14.04721692 227.42904194 15 225 C15.04022391 222.6670134 15.04320247 220.33293334 15 218 C14.43990234 217.85626953 13.87980469 217.71253906 13.30273438 217.56445312 C10.75473287 216.66105029 9.03753047 215.79184072 7 214 C5.57571983 209.91093757 5.59784741 205.80132689 5.5 201.5 C5.44505371 200.21657715 5.39010742 198.9331543 5.33349609 197.61083984 C5.18706793 193.91851128 5.1069895 190.2272055 5.04431152 186.53259277 C4.99691889 183.82390141 4.93672948 181.11564959 4.87597656 178.40722656 C4.77116051 173.46458822 4.7002359 168.52237863 4.65356445 163.57885742 C4.63461225 161.61900484 4.61073414 159.65919333 4.58178711 157.69946289 C4.54603171 154.91646175 4.53852414 152.13476651 4.5390625 149.3515625 C4.52481232 148.52552521 4.51056213 147.69948792 4.49588013 146.84841919 C4.54153495 140.91123475 6.0318313 137.14301215 9 132 C7.35 131.34 5.7 130.68 4 130 C3.99191315 129.1573056 3.98382629 128.31461121 3.97549438 127.44638062 C3.63933033 74.61781694 3.63933033 74.61781694 1.25390625 21.85546875 C0.77436791 14.57386353 0.39693082 7.2865158 0 0 Z " fill="#010101" transform="translate(3389,129)"/>
<path d="M0 0 C0.98117798 0.21221191 0.98117798 0.21221191 1.98217773 0.42871094 C9.07697634 1.85506564 15.83650063 2.31335619 23.0625 2.25 C24.1457959 2.24613281 25.2290918 2.24226563 26.34521484 2.23828125 C34.4012241 2.15264229 42.28122479 1.5299436 50.2578125 0.4375 C53.8781291 0.01424795 57.35909327 -0.0756552 61 0 C60.83757813 1.16917969 60.67515625 2.33835937 60.5078125 3.54296875 C59.81816718 9.77536414 59.85013516 16.00016342 59.86962891 22.2644043 C59.87496221 24.29809112 59.86966952 26.33155447 59.86328125 28.36523438 C59.86521484 30.34426758 59.86521484 30.34426758 59.8671875 32.36328125 C59.86887939 34.13119019 59.86887939 34.13119019 59.87060547 35.93481445 C59.92863733 39.21941234 60.2037606 42.46303903 60.50219727 45.73413086 C61.03245401 51.79971245 61.12875845 57.80503201 61.09765625 63.890625 C61.0962413 64.96125183 61.09482635 66.03187866 61.09336853 67.13494873 C61.08783481 70.50666266 61.07529534 73.87830663 61.0625 77.25 C61.05747641 79.55598861 61.05291502 81.86197829 61.04882812 84.16796875 C61.03788722 89.77866913 61.02121682 95.38932956 61 101 C64.04776056 101.80208589 66.83014252 102.18177438 69.984375 102.31640625 C70.91894531 102.35830078 71.85351562 102.40019531 72.81640625 102.44335938 C73.78449219 102.48267578 74.75257813 102.52199219 75.75 102.5625 C77.22533203 102.62727539 77.22533203 102.62727539 78.73046875 102.69335938 C81.15351275 102.79922052 83.5766554 102.90130171 86 103 C85.00806641 104.60294922 85.00806641 104.60294922 83.99609375 106.23828125 C81.42563201 110.74708677 81.76314257 112.97011312 83 118 C83.79573513 120.61760705 83.79573513 120.61760705 86 122 C89.06708181 122.49782858 91.94834574 122.61364787 95 122 C97.46337521 120.07968705 97.98681036 119.03956893 99 116 C99.09329934 114.35628509 99.12995144 112.70885323 99.125 111.0625 C99.12757813 110.20785156 99.13015625 109.35320312 99.1328125 108.47265625 C99.00930254 106.17319148 98.64420687 104.20359652 98 102 C106.07562173 100.56205146 113.7943963 99.70400628 122 100 C123.24193748 103.72581245 122.54831788 104.79216534 121.125 108.375 C118.27168261 115.61803644 117.80733845 121.90783042 117.8125 129.625 C117.8115332 131.10625366 117.8115332 131.10625366 117.81054688 132.61743164 C117.85348626 138.52696468 118.23125944 144.08102713 119.5546875 149.859375 C120.19933444 152.95820417 120.14011043 155.84751529 120 159 C114.63147458 161.21781706 109.83139501 161.30087425 104.125 161.25 C103.26519531 161.25773438 102.40539063 161.26546875 101.51953125 161.2734375 C96.7951176 161.25909937 92.87558531 160.73529799 88.30419922 159.4453125 C82.96408122 158.41327444 77.41569311 158.80065574 72 158.875 C70.12248047 158.88853516 70.12248047 158.88853516 68.20703125 158.90234375 C65.1378199 158.92577284 62.06901244 158.95857853 59 159 C59.40660516 169.82853748 59.89798323 180.34978169 62 191 C59.03 192.98 56.06 194.96 53 197 C53.845625 197.721875 54.69125 198.44375 55.5625 199.1875 C58 202 58 202 58 204.375 C57.22867679 206.39972343 56.37996668 208.39507498 55.5 210.375 C54.00278265 213.99327526 53.39574711 217.12167835 53 221 C57.84743926 218.23003471 60.61682079 215.18892968 63.80078125 210.609375 C64.19652344 210.07828125 64.59226562 209.5471875 65 209 C65.33 209 65.66 209 66 209 C66.3412158 212.77016231 66.67148283 216.54121166 67 220.3125 C67.09539063 221.36501953 67.19078125 222.41753906 67.2890625 223.50195312 C67.87944739 230.35463483 68.12334173 237.1228421 68 244 C67.13310547 244.05534912 66.26621094 244.11069824 65.37304688 244.16772461 C62.12259179 244.37641564 58.87229207 244.58727808 55.62207031 244.79956055 C54.22173505 244.89058556 52.82134503 244.98077262 51.42089844 245.07006836 C42.63920039 245.56742548 42.63920039 245.56742548 33.90625 246.5625 C27.94210476 247.23048427 21.99563849 247.10365275 16 247.0625 C14.74832031 247.05798828 13.49664063 247.05347656 12.20703125 247.04882812 C9.13796796 247.03711414 6.06901829 247.0198272 3 247 C0.87957893 228.75748725 0.86922518 210.71024172 1.20107031 192.38822103 C1.27100589 188.38593021 1.32734699 184.38344542 1.38528442 180.38096619 C1.49640835 172.8415053 1.61931506 165.3022871 1.74672711 157.76308578 C1.89147217 149.16309842 2.02266797 140.56291985 2.15286803 131.96270192 C2.42043831 114.30821776 2.70456122 96.65403938 3 79 C3.76530029 79.32597168 4.53060059 79.65194336 5.3190918 79.98779297 C8.34267636 81.12938131 10.59543609 81.20251961 13.8125 81.125 C15.27623047 81.09792969 15.27623047 81.09792969 16.76953125 81.0703125 C17.50558594 81.04710937 18.24164062 81.02390625 19 81 C17.65212769 76.6175325 15.99153384 74.87300123 12.1875 72.375 C10.90939453 71.52035156 10.90939453 71.52035156 9.60546875 70.6484375 C7.84535065 69.53483954 6.04992864 68.47545356 4.2265625 67.46875 C2 66 2 66 1.1875 63.125 C1.10701088 61.75093568 1.04759849 60.37559646 1 59 C0.83757813 57.60394531 0.83757813 57.60394531 0.671875 56.1796875 C-0.07672171 46.02372541 3.82164317 39.35703568 9 31 C6.36 31.66 3.72 32.32 1 33 C-0.46560818 22.06028181 -0.09470423 11.01045894 0 0 Z " fill="#010101" transform="translate(2628,125)"/>
<path d="M0 0 C0.92031006 0.18304688 1.84062012 0.36609375 2.78881836 0.5546875 C4.64232171 0.92380715 6.49528196 1.29566564 8.34765625 1.67041016 C10.63495251 2.12709318 12.92440301 2.56097175 15.21875 2.98046875 C36.91542312 7.037388 36.91542312 7.037388 44.9375 14.1875 C45.33195312 15.46367187 45.33195312 15.46367187 45.734375 16.765625 C46.13140625 17.56484375 46.5284375 18.3640625 46.9375 19.1875 C49.79331649 20.22873065 49.79331649 20.22873065 53.0625 20.5 C54.15820312 20.64050781 55.25390625 20.78101563 56.3828125 20.92578125 C57.22585937 21.01214844 58.06890625 21.09851563 58.9375 21.1875 C60.03559003 25.46350619 59.55018262 27.23597038 57.6484375 31.22265625 C56.3652943 34.76892566 56.40989383 38.48055276 56.9375 42.1875 C57.26878906 42.81398437 57.60007812 43.44046875 57.94140625 44.0859375 C61.53588857 51.6695904 58.99548149 64.34144558 56.9375 72.1875 C52.55623742 83.81278197 46.58621028 91.74616604 35.1875 97.0625 C33.44571146 97.7907917 31.69584617 98.5001465 29.9375 99.1875 C29.21949219 99.55746094 28.50148438 99.92742187 27.76171875 100.30859375 C23.37803557 101.67281051 19.06097899 101.43488846 14.5 101.375 C13.57123047 101.37435547 12.64246094 101.37371094 11.68554688 101.37304688 C6.99655429 101.34301062 2.54775093 101.1495724 -2.0625 100.1875 C-2.0625 101.1775 -2.0625 102.1675 -2.0625 103.1875 C-23.04486975 101.07982568 -41.05280351 92.19292429 -55.37109375 76.6875 C-61.02307083 69.73122051 -62.43508786 62.81688705 -64.0625 54.1875 C-64.31966797 52.93646484 -64.31966797 52.93646484 -64.58203125 51.66015625 C-65.89432646 44.90663702 -66.15279295 40.28030491 -62.24951172 34.25170898 C-54.74882001 23.57764771 -45.94004084 16.43101052 -35.28125 9.1171875 C-31.693303 6.65443001 -28.2119776 4.07429609 -24.7578125 1.42773438 C-17.32140822 -4.01249226 -8.38751014 -1.71592517 0 0 Z " fill="#FDFDFD" transform="translate(2416.0625,194.8125)"/>
<path d="M0 0 C8.26272828 0.70209751 16.51047629 1.52983027 24.74487305 2.50976562 C26.13132622 2.67085547 27.51875305 2.82376183 28.90698242 2.96875 C43.19221518 4.46875803 43.19221518 4.46875803 48 10 C48.66 8.35 49.32 6.7 50 5 C57.92 4.505 57.92 4.505 66 4 C68.27243393 21.04325446 68.20656275 37.84416954 68 55 C66.88625 55.28875 65.7725 55.5775 64.625 55.875 C60.99708908 56.69241329 60.99708908 56.69241329 59 59 C59 65.23718469 60.36392111 68.14467312 64.72265625 72.5546875 C66 74 66 74 66 76 C56.60802121 76.20466782 47.73756822 75.96693822 38.4375 74.44921875 C31.84481975 73.58767531 24.37546728 72.87484424 18 75 C17.34 74.01 16.68 73.02 16 72 C12.06924356 72.57452746 12.06924356 72.57452746 9 75 C7.12060547 75.22705078 7.12060547 75.22705078 4.8671875 75.1953125 C4.06152344 75.18886719 3.25585938 75.18242188 2.42578125 75.17578125 C1.58402344 75.15902344 0.74226563 75.14226562 -0.125 75.125 C-0.97449219 75.11597656 -1.82398437 75.10695313 -2.69921875 75.09765625 C-4.79959884 75.07405647 -6.89983444 75.03818483 -9 75 C-8.48362047 66.56074777 -7.26207795 58.46338391 -5.5625 50.1875 C-2.24950614 33.40513023 -0.57634297 17.09583181 0 0 Z " fill="#020202" transform="translate(3393,463)"/>
<path d="M0 0 C0.78310547 0.00193359 1.56621094 0.00386719 2.37304688 0.00585938 C3.55157227 0.02422852 3.55157227 0.02422852 4.75390625 0.04296875 C5.53572266 0.04361328 6.31753906 0.04425781 7.12304688 0.04492188 C11.06415257 0.07406727 14.92738112 0.2643654 18.84375 0.70703125 C26.34834635 1.52041286 33.9008708 1.59440564 41.44140625 1.79296875 C42.98568628 1.83626177 44.52995725 1.87987908 46.07421875 1.92382812 C49.82151764 2.02977816 53.56891978 2.13134745 57.31640625 2.23046875 C57.38652061 9.55087439 57.43952443 16.87120533 57.47184277 24.19188118 C57.48736925 27.59272411 57.50836255 30.99333406 57.54272461 34.39404297 C57.57950254 38.32134927 57.59622266 42.24833292 57.609375 46.17578125 C57.62485886 47.37220245 57.64034271 48.56862366 57.65629578 49.80130005 C57.65796459 58.34556996 56.39851224 65.95172061 54.31640625 74.23046875 C46.14688375 73.60970899 38.11281914 72.50790232 30.02734375 71.19921875 C28.80230133 71.00324097 27.57725891 70.80726318 26.31509399 70.60534668 C23.74833953 70.19366278 21.18188529 69.78010306 18.61572266 69.36474609 C15.98201514 68.9390666 13.34809338 68.51551215 10.71337891 68.09619141 C6.90066097 67.48901052 3.08887926 66.8762737 -0.72265625 66.26171875 C-1.90791901 66.07315308 -3.09318176 65.8845874 -4.31436157 65.69030762 C-5.94273453 65.4249823 -5.94273453 65.4249823 -7.60400391 65.15429688 C-8.56343903 64.99964966 -9.52287415 64.84500244 -10.51138306 64.68566895 C-12.68359375 64.23046875 -12.68359375 64.23046875 -13.68359375 63.23046875 C-13.77750671 61.32803113 -13.80103033 59.42208416 -13.79711914 57.51733398 C-13.79704361 56.29614365 -13.79696808 55.07495331 -13.79689026 53.8167572 C-13.79178286 52.47419189 -13.78656686 51.131627 -13.78125 49.7890625 C-13.77938574 48.42285717 -13.77796188 47.05665118 -13.77696228 45.69044495 C-13.77313769 42.0884518 -13.76330792 38.48649875 -13.7522583 34.88452148 C-13.74204291 31.2114313 -13.73746439 27.53833466 -13.73242188 23.86523438 C-13.72168559 16.65362752 -13.70460989 9.44205375 -13.68359375 2.23046875 C-4.20641526 -0.02522365 -4.20641526 -0.02522365 0 0 Z " fill="#BC6245" transform="translate(1285.68359375,151.76953125)"/>
<path d="M0 0 C1.12647949 0.06888428 2.25295898 0.13776855 3.41357422 0.20874023 C6.86345739 0.43233928 10.30538671 0.70676777 13.75 1 C14.8234668 1.08910645 15.89693359 1.17821289 17.00292969 1.27001953 C22.92720538 1.77439107 28.83958611 2.35374455 34.75 3 C33.875 9.875 33.875 9.875 32.75 11 C29.91888877 11.10154906 27.1127875 11.1396495 24.28125 11.1328125 C23.41294556 11.13376923 22.54464111 11.13472595 21.65002441 11.13571167 C19.79711841 11.13639468 17.94421005 11.13453204 16.09130859 11.13037109 C13.3173243 11.12512727 10.54350975 11.13025723 7.76953125 11.13671875 C-3.27305717 11.14043529 -14.23607254 10.79682171 -25.25 10 C-17.22478951 1.76442426 -11.57675924 -0.9651612 0 0 Z " fill="#F7F7F7" transform="translate(2419.25,539)"/>
<path d="M0 0 C0.8146875 -0.00773438 1.629375 -0.01546875 2.46875 -0.0234375 C8.49652201 -0.00347799 8.49652201 -0.00347799 10.75 2.25 C10.52207996 7.26424098 8.8770552 10.38232647 5.75 14.25 C0.75046335 18.65493156 -4.13575949 20.92218521 -10.8125 21.625 C-14.86822102 21.18255771 -16.39939627 20.10060373 -19.25 17.25 C-20.82455739 14.10088521 -20.59799118 11.72991184 -20.25 8.25 C-15.11152273 0.24002072 -8.75967617 -0.08477106 0 0 Z " fill="#FBFBFB" transform="translate(2365.25,174.75)"/>
<path d="M0 0 C3.6384859 2.06263373 6.83308558 4.91579952 8 9 C8.71441107 14.35808304 8.37944149 17.02580916 5.1875 21.4375 C3.07292705 24.10551673 2.31117216 24.89627595 -1 26 C-7.02562264 25.02812538 -9.99169997 23.83353827 -14 19 C-16.36285193 15.45572211 -16.58847205 13.45648546 -16.52734375 9.29296875 C-15.57723395 5.16175056 -12.44167343 3.18024561 -9 1 C-5.85088521 -0.57455739 -3.47991184 -0.34799118 0 0 Z " fill="#F9F9F9" transform="translate(2984,251)"/>
<path d="M0 0 C3.00305606 2.54104744 3.8491886 4.50986294 5 8.25 C5 15.77262511 1.13407402 21.74070466 -4 27 C-7.02215181 29.15867987 -8.27179182 30 -12 30 C-12.84770456 27.81716075 -13.67807547 25.63003921 -14.5 23.4375 C-14.9640625 22.21933594 -15.428125 21.00117188 -15.90625 19.74609375 C-17.04028764 15.86201485 -17.44580455 13.01698356 -17 9 C-15.5390625 6.6015625 -15.5390625 6.6015625 -13.625 4.625 C-12.99851562 3.95726562 -12.37203125 3.28953125 -11.7265625 2.6015625 C-8.29956796 -0.57732383 -4.48817025 -0.77320953 0 0 Z " fill="#F9F9F9" transform="translate(2692,444)"/>
<path d="M0 0 C2.80078994 1.4550305 3.94147737 3.0512584 5 6 C5.65595661 9.48546436 5.72699637 12.52204935 5 16 C2.8125 18.9375 2.8125 18.9375 0 21 C-0.78375 21.598125 -1.5675 22.19625 -2.375 22.8125 C-5.87271206 24.39479831 -8.20455037 24.5520654 -12 24 C-16.17347735 20.05211602 -18.05558232 15.67498753 -18.375 10 C-18.28252082 5.92320947 -16.95355713 3.86668781 -14 1 C-9.76743039 -1.1162848 -4.58694174 -0.61688564 0 0 Z " fill="#F7F7F7" transform="translate(3417,156)"/>
<path d="M0 0 C2.375 0.8125 2.375 0.8125 4.375 2.8125 C5.14554738 7.7941784 4.92067443 11.77760021 2.5625 16.25 C1.840625 17.095625 1.11875 17.94125 0.375 18.8125 C-0.07875 19.43125 -0.5325 20.05 -1 20.6875 C-2.625 21.8125 -2.625 21.8125 -5.5625 22.375 C-8.625 21.8125 -8.625 21.8125 -11.0625 19.25 C-12.97695941 15.03818931 -12.96305726 13.22021802 -11.625 8.8125 C-5.09558824 -0.36397059 -5.09558824 -0.36397059 0 0 Z " fill="#F8F8F8" transform="translate(2653.625,271.1875)"/>
<path d="M0 0 C2.47034427 1.8527582 2.97109638 2.84905886 3.5625 5.9375 C3 9 3 9 0.75 11.375 C-3.95197133 14.08117055 -9.77332454 13.64862062 -15 13 C-15.99 12.34 -16.98 11.68 -18 11 C-17 8 -17 8 -13.9453125 6.2109375 C-12.67686551 5.58868048 -11.40314701 4.97708122 -10.125 4.375 C-9.48691406 4.06304687 -8.84882813 3.75109375 -8.19140625 3.4296875 C-5.49051 2.12152898 -2.84964146 0.94988049 0 0 Z " fill="#FBF6F5" transform="translate(373,180)"/>
<path d="M0 0 C0.33 0 0.66 0 1 0 C1 9.24 1 18.48 1 28 C-2.70500184 26.51799926 -5.67262 25.091496 -9 23 C-8.43997169 17.43527426 -6.3654757 13.0732061 -3.9375 8.125 C-3.37192383 6.949375 -3.37192383 6.949375 -2.79492188 5.75 C-1.87006766 3.83004947 -0.93596022 1.914561 0 0 Z " fill="#F7F7F7" transform="translate(2864,408)"/>
<path d="M0 0 C0.9375 2.625 0.9375 2.625 1 6 C-1.32860823 9.17537486 -4.23141984 11.47862666 -8.02734375 12.59765625 C-9.9375 12.875 -9.9375 12.875 -13 13 C-13.75 10.3125 -13.75 10.3125 -14 7 C-10.63714417 1.43835381 -6.53692085 -2.05446084 0 0 Z " fill="#FBF5F4" transform="translate(1322,367)"/>
<path d="M0 0 C0.4505519 3.07877133 0.50042912 5.21010698 -1.1953125 7.88671875 C-3.8372443 11.0530541 -6.09379881 13.47926519 -10 15 C-11.32 15 -12.64 15 -14 15 C-14.42397033 10.76029672 -14.43792242 8.01657823 -11.75 4.6875 C-7.76573838 0.79378978 -5.56889233 -0.30938291 0 0 Z " fill="#FBF7F5" transform="translate(2096,275)"/>
<path d="M0 0 C0.45647158 5.70589472 -0.30082416 8.60098008 -4 13 C-6.5 14.9375 -6.5 14.9375 -9 16 C-11.3125 15.6875 -11.3125 15.6875 -13 15 C-13.31167613 11.02612932 -13.42805011 8.69756315 -11.3125 5.25 C-7.5554461 1.5944881 -5.32161433 0 0 0 Z " fill="#FCF8F7" transform="translate(679,267)"/>
<path d="M0 0 C1.49105779 2.98211558 1.50994661 4.68534705 1 8 C-1.89855697 11.62738488 -4.91205974 13.69779437 -9.375 14.9375 C-10.24125 14.958125 -11.1075 14.97875 -12 15 C-13 14 -13 14 -13.5 11.3125 C-12.85217084 7.0206318 -11.21140155 5.91162687 -7.921875 3.296875 C-3.03614458 0 -3.03614458 0 0 0 Z " fill="#FAF5F3" transform="translate(1708,498)"/>
<path d="M0 0 C0.8971875 0.309375 0.8971875 0.309375 1.8125 0.625 C2.625 3.3125 2.625 3.3125 2.8125 6.625 C0.38004989 9.59799458 -1.99663336 11.49775557 -5.1875 13.625 C-7.875 13.75 -7.875 13.75 -10.1875 13.625 C-10.5 10.4375 -10.5 10.4375 -10.1875 6.625 C-4.1546675 -0.71222871 -4.1546675 -0.71222871 0 0 Z " fill="#FCF9F8" transform="translate(1123.1875,509.375)"/>
<path d="M0 0 C0.0272415 1.41655793 0.04650467 2.83327045 0.0625 4.25 C0.07410156 5.03890625 0.08570313 5.8278125 0.09765625 6.640625 C0.00385306 8.90691002 -0.36758937 10.8288895 -1 13 C-2.9375 12.4375 -2.9375 12.4375 -5 11 C-6 7.625 -6 7.625 -6 4 C-3.02564103 0 -3.02564103 0 0 0 Z " fill="#FBF7F6" transform="translate(183,227)"/>
<path d="M0 0 C0 0.99 0 1.98 0 3 C-1.65 3.33 -3.3 3.66 -5 4 C-5.33 3.01 -5.66 2.02 -6 1 C-4 0 -4 0 0 0 Z " fill="#F6E9E6" transform="translate(717,494)"/>
<path d="M0 0 C0 0.99 0 1.98 0 3 C-1.98 3.33 -3.96 3.66 -6 4 C-5.67 3.01 -5.34 2.02 -5 1 C-3 0 -3 0 0 0 Z " fill="#F4E5E0" transform="translate(1327,170)"/>
<path d="M0 0 C0.33 0.99 0.66 1.98 1 3 C-0.65 3.66 -2.3 4.32 -4 5 C-4 4.01 -4 3.02 -4 2 C-2.68 1.34 -1.36 0.68 0 0 Z " fill="#F6EAE6" transform="translate(1499,322)"/>
<path d="M0 0 C0 0.99 0 1.98 0 3 C-1.98 3.33 -3.96 3.66 -6 4 C-5.67 3.01 -5.34 2.02 -5 1 C-3 0 -3 0 0 0 Z " fill="#F7EDE9" transform="translate(1103,281)"/>
</svg>
